  0
SECTION
  2
HEADER
  9
$ACADVER
  1
AC1006
  9
$EXTMIN
 10
0.000000
 20
0.000000
 30
0.000000
  9
$EXTMAX
 10
486.000000
 20
422.000000
 30
0.000000
  0
ENDSEC
  0
SECTION
  2
ENTITIES
  0
POLYLINE
  8
0
 66
1
 70
1
  0
VERTEX
  8
0
 10
240.500000
 20
417.638006
 42
0.056525
  0
VERTEX
  8
0
 10
237.689551
 20
415.922498
 42
0.037787
  0
VERTEX
  8
0
 10
234.894871
 20
413.388569
 42
0.038011
  0
VERTEX
  8
0
 10
232.539651
 20
410.492517
 42
0.061462
  0
VERTEX
  8
0
 10
231.063618
 20
407.684900
 42
0.092133
  0
VERTEX
  8
0
 10
230.014737
 20
401.837868
 42
0.082272
  0
VERTEX
  8
0
 10
231.061999
 20
395.752406
 42
0.082652
  0
VERTEX
  8
0
 10
234.008003
 20
390.353727
 42
0.094340
  0
VERTEX
  8
0
 10
238.433906
 20
386.485866
 42
0.162092
  0
VERTEX
  8
0
 10
248.991003
 20
384.250025
 42
0.166287
  0
VERTEX
  8
0
 10
258.653357
 20
388.825416
 42
0.161917
  0
VERTEX
  8
0
 10
263.655193
 20
398.481466
 42
0.153978
  0
VERTEX
  8
0
 10
262.014836
 20
409.434276
 42
0.102008
  0
VERTEX
  8
0
 10
258.234437
 20
414.330168
 42
0.086632
  0
VERTEX
  8
0
 10
252.612840
 20
417.677945
 42
0.088294
  0
VERTEX
  8
0
 10
246.291113
 20
418.881659
 42
0.112250
  0
SEQEND
  0
POLYLINE
  8
0
 66
1
 70
1
  0
VERTEX
  8
0
 10
351.383912
 20
417.086884
 42
0.113379
  0
VERTEX
  8
0
 10
345.012813
 20
412.222739
 42
0.117736
  0
VERTEX
  8
0
 10
341.511087
 20
405.129020
 42
0.119164
  0
VERTEX
  8
0
 10
341.613478
 20
397.287519
 42
0.118111
  0
VERTEX
  8
0
 10
345.283701
 20
390.329664
 42
0.079106
  0
VERTEX
  8
0
 10
350.155645
 20
386.289135
 42
0.091170
  0
VERTEX
  8
0
 10
355.814255
 20
384.206503
 42
0.092306
  0
VERTEX
  8
0
 10
361.786379
 20
384.285749
 42
0.083375
  0
VERTEX
  8
0
 10
367.566094
 20
386.485866
 42
0.120653
  0
VERTEX
  8
0
 10
373.218642
 20
391.969561
 42
0.115363
  0
VERTEX
  8
0
 10
375.816231
 20
399.535870
 42
0.114286
  0
VERTEX
  8
0
 10
374.799200
 20
407.526804
 42
0.116727
  0
VERTEX
  8
0
 10
370.373161
 20
414.186382
 42
0.066598
  0
VERTEX
  8
0
 10
366.090442
 20
417.236204
 42
0.083756
  0
VERTEX
  8
0
 10
361.472242
 20
418.759941
 42
0.082447
  0
VERTEX
  8
0
 10
356.552196
 20
418.696229
 42
0.062281
  0
SEQEND
  0
POLYLINE
  8
0
 66
1
 70
1
  0
VERTEX
  8
0
 10
266.009433
 20
407.475190
 42
-0.032834
  0
VERTEX
  8
0
 10
266.389610
 20
406.235990
 42
-0.016938
  0
VERTEX
  8
0
 10
266.709021
 20
404.645255
 42
-0.016763
  0
VERTEX
  8
0
 10
266.927965
 20
402.980445
 42
-0.024315
  0
VERTEX
  8
0
 10
267.000000
 20
401.500000
 42
-0.024315
  0
VERTEX
  8
0
 10
266.927965
 20
400.019555
 42
-0.016763
  0
VERTEX
  8
0
 10
266.709021
 20
398.354745
 42
-0.016938
  0
VERTEX
  8
0
 10
266.389610
 20
396.764010
 42
-0.032834
  0
VERTEX
  8
0
 10
266.009433
 20
395.524810
 42
0.000000
  0
VERTEX
  8
0
 10
265.018865
 20
392.919420
 42
0.000000
  0
VERTEX
  8
0
 10
273.259433
 20
393.209710
 42
0.000000
  0
VERTEX
  8
0
 10
281.500000
 20
393.500000
 42
0.000000
  0
VERTEX
  8
0
 10
281.500000
 20
401.500000
 42
0.000000
  0
VERTEX
  8
0
 10
281.500000
 20
409.500000
 42
0.000000
  0
VERTEX
  8
0
 10
273.259433
 20
409.790290
 42
0.000000
  0
VERTEX
  8
0
 10
265.018865
 20
410.080580
 42
0.000000
  0
SEQEND
  0
POLYLINE
  8
0
 66
1
 70
1
  0
VERTEX
  8
0
 10
286.074703
 20
408.590012
 42
0.121983
  0
VERTEX
  8
0
 10
285.601277
 20
407.609840
 42
0.025463
  0
VERTEX
  8
0
 10
285.301930
 20
405.709948
 42
0.023216
  0
VERTEX
  8
0
 10
285.157086
 20
403.255126
 42
0.014004
  0
VERTEX
  8
0
 10
285.202258
 20
400.340012
 42
0.000000
  0
VERTEX
  8
0
 10
285.500000
 20
393.500000
 42
0.000000
  0
VERTEX
  8
0
 10
312.673792
 20
393.234067
 42
0.000000
  0
VERTEX
  8
0
 10
339.847584
 20
392.968133
 42
0.000000
  0
VERTEX
  8
0
 10
338.838509
 20
396.622701
 42
-0.050578
  0
VERTEX
  8
0
 10
338.377794
 20
399.333756
 42
-0.034107
  0
VERTEX
  8
0
 10
338.380703
 20
402.474407
 42
-0.033420
  0
VERTEX
  8
0
 10
338.818423
 20
405.674752
 42
-0.040939
  0
VERTEX
  8
0
 10
339.665624
 20
408.571014
 42
0.523522
  0
VERTEX
  8
0
 10
338.648143
 20
410.064125
 42
0.001925
  0
VERTEX
  8
0
 10
313.833741
 20
410.168443
 42
0.002290
  0
VERTEX
  8
0
 10
289.178491
 20
410.064273
 42
0.220804
  0
SEQEND
  0
POLYLINE
  8
0
 66
1
 70
1
  0
VERTEX
  8
0
 10
256.135808
 20
383.846772
 42
-0.022911
  0
VERTEX
  8
0
 10
253.833613
 20
382.757059
 42
-0.020436
  0
VERTEX
  8
0
 10
251.352767
 20
381.836239
 42
-0.020936
  0
VERTEX
  8
0
 10
249.053834
 20
381.193359
 42
-0.057767
  0
VERTEX
  8
0
 10
247.385808
 20
381.000000
 42
0.014610
  0
VERTEX
  8
0
 10
246.087807
 20
380.962066
 42
0.023952
  0
VERTEX
  8
0
 10
244.994581
 20
380.845384
 42
0.020723
  0
VERTEX
  8
0
 10
244.162847
 20
380.680533
 42
0.346354
  0
VERTEX
  8
0
 10
244.000000
 20
380.473646
 42
0.098842
  0
VERTEX
  8
0
 10
244.147325
 20
379.735671
 42
0.000016
  0
VERTEX
  8
0
 10
260.103499
 20
341.368388
 42
0.000025
  0
VERTEX
  8
0
 10
275.988627
 20
303.180837
 42
0.063755
  0
VERTEX
  8
0
 10
276.563646
 20
302.180239
 42
0.333466
  0
VERTEX
  8
0
 10
276.786897
 20
302.116494
 42
0.006241
  0
VERTEX
  8
0
 10
277.987136
 20
302.593229
 42
0.012559
  0
VERTEX
  8
0
 10
279.417261
 20
303.224500
 42
0.007735
  0
VERTEX
  8
0
 10
281.068977
 20
304.035189
 42
-0.033769
  0
VERTEX
  8
0
 10
283.074735
 20
304.893232
 42
-0.021755
  0
VERTEX
  8
0
 10
285.496280
 20
305.624341
 42
-0.021734
  0
VERTEX
  8
0
 10
287.977201
 20
306.143417
 42
-0.033209
  0
VERTEX
  8
0
 10
290.164795
 20
306.354951
 42
0.005248
  0
VERTEX
  8
0
 10
292.018014
 20
306.430045
 42
0.008709
  0
VERTEX
  8
0
 10
293.578441
 20
306.536966
 42
0.003019
  0
VERTEX
  8
0
 10
294.896516
 20
306.658398
 42
0.384666
  0
VERTEX
  8
0
 10
294.998912
 20
306.770891
 42
0.100281
  0
VERTEX
  8
0
 10
294.902967
 20
307.254433
 42
0.000007
  0
VERTEX
  8
0
 10
278.396109
 20
346.760376
 42
0.000005
  0
VERTEX
  8
0
 10
261.860377
 20
386.332873
 42
0.146717
  0
VERTEX
  8
0
 10
261.643824
 20
386.596772
 42
0.269405
  0
VERTEX
  8
0
 10
261.525475
 20
386.604589
 42
0.000676
  0
VERTEX
  8
0
 10
259.966517
 20
385.828878
 42
0.003852
  0
VERTEX
  8
0
 10
258.202791
 20
384.931257
 42
0.002358
  0
SEQEND
  0
POLYLINE
  8
0
 66
1
 70
1
  0
VERTEX
  8
0
 10
351.000000
 20
377.250000
 42
0.000000
  0
VERTEX
  8
0
 10
351.000000
 20
373.000000
 42
0.000000
  0
VERTEX
  8
0
 10
358.500000
 20
373.000000
 42
0.000000
  0
VERTEX
  8
0
 10
366.000000
 20
373.000000
 42
0.000000
  0
VERTEX
  8
0
 10
366.000000
 20
377.250000
 42
0.000000
  0
VERTEX
  8
0
 10
366.000000
 20
381.500000
 42
0.000000
  0
VERTEX
  8
0
 10
358.500000
 20
381.500000
 42
0.000000
  0
VERTEX
  8
0
 10
351.000000
 20
381.500000
 42
0.000000
  0
SEQEND
  0
POLYLINE
  8
0
 66
1
 70
1
  0
VERTEX
  8
0
 10
354.714259
 20
370.380925
 42
0.137790
  0
VERTEX
  8
0
 10
354.436003
 20
369.885265
 42
0.020477
  0
VERTEX
  8
0
 10
354.209813
 20
368.750438
 42
0.021758
  0
VERTEX
  8
0
 10
354.052292
 20
367.353424
 42
0.017195
  0
VERTEX
  8
0
 10
354.000000
 20
365.833333
 42
0.000000
  0
VERTEX
  8
0
 10
354.000000
 20
362.000000
 42
0.000000
  0
VERTEX
  8
0
 10
348.622445
 20
362.000000
 42
0.019265
  0
VERTEX
  8
0
 10
346.282527
 20
361.909811
 42
0.033403
  0
VERTEX
  8
0
 10
344.358152
 20
361.631104
 42
0.040576
  0
VERTEX
  8
0
 10
342.905351
 20
361.194849
 42
0.126987
  0
VERTEX
  8
0
 10
342.084997
 20
360.602416
 42
0.134772
  0
VERTEX
  8
0
 10
341.585225
 20
359.497547
 42
0.019870
  0
VERTEX
  8
0
 10
341.295902
 20
357.038774
 42
0.018218
  0
VERTEX
  8
0
 10
341.159010
 20
353.698821
 42
0.008425
  0
VERTEX
  8
0
 10
341.212553
 20
349.352416
 42
0.000000
  0
VERTEX
  8
0
 10
341.500000
 20
339.500000
 42
0.000000
  0
VERTEX
  8
0
 10
345.750000
 20
339.192502
 42
0.000000
  0
VERTEX
  8
0
 10
350.000000
 20
338.885004
 42
0.000000
  0
VERTEX
  8
0
 10
350.000000
 20
345.942502
 42
0.000000
  0
VERTEX
  8
0
 10
350.000000
 20
353.000000
 42
0.000000
  0
VERTEX
  8
0
 10
358.954310
 20
353.000000
 42
0.000000
  0
VERTEX
  8
0
 10
367.908620
 20
353.000000
 42
0.000000
  0
VERTEX
  8
0
 10
368.204310
 20
346.250000
 42
0.000000
  0
VERTEX
  8
0
 10
368.500000
 20
339.500000
 42
0.000000
  0
VERTEX
  8
0
 10
372.750000
 20
339.192502
 42
0.000000
  0
VERTEX
  8
0
 10
377.000000
 20
338.885004
 42
0.000000
  0
VERTEX
  8
0
 10
377.000000
 20
349.242502
 42
0.008033
  0
VERTEX
  8
0
 10
376.926906
 20
353.791558
 42
0.017833
  0
VERTEX
  8
0
 10
376.692071
 20
357.250117
 42
0.018675
  0
VERTEX
  8
0
 10
376.333543
 20
359.779580
 42
0.152990
  0
VERTEX
  8
0
 10
375.800000
 20
360.800000
 42
0.131315
  0
VERTEX
  8
0
 10
374.993633
 20
361.266270
 42
0.022996
  0
VERTEX
  8
0
 10
373.265640
 20
361.647500
 42
0.023564
  0
VERTEX
  8
0
 10
371.144056
 20
361.912016
 42
0.019232
  0
VERTEX
  8
0
 10
368.857498
 20
362.000000
 42
0.000000
  0
VERTEX
  8
0
 10
363.114996
 20
362.000000
 42
0.000000
  0
VERTEX
  8
0
 10
362.807498
 20
366.250000
 42
0.016953
  0
VERTEX
  8
0
 10
362.528610
 20
368.867929
 42
0.141335
  0
VERTEX
  8
0
 10
362.046586
 20
369.944876
 42
0.170470
  0
VERTEX
  8
0
 10
361.105024
 20
370.498391
 42
0.027454
  0
VERTEX
  8
0
 10
358.964259
 20
370.797592
 42
0.020091
  0
VERTEX
  8
0
 10
357.558152
 20
370.859209
 42
0.025341
  0
VERTEX
  8
0
 10
356.257328
 20
370.797953
 42
0.024855
  0
VERTEX
  8
0
 10
355.200341
 20
370.640985
 42
0.148137
  0
SEQEND
  0
POLYLINE
  8
0
 66
1
 70
1
  0
VERTEX
  8
0
 10
284.604322
 20
302.961570
 42
0.074173
  0
VERTEX
  8
0
 10
281.732729
 20
301.613741
 42
0.042766
  0
VERTEX
  8
0
 10
278.738898
 20
299.230166
 42
0.042107
  0
VERTEX
  8
0
 10
276.121565
 20
296.298171
 42
0.060145
  0
VERTEX
  8
0
 10
274.376839
 20
293.282119
 42
0.055620
  0
VERTEX
  8
0
 10
273.315701
 20
289.766943
 42
0.061730
  0
VERTEX
  8
0
 10
273.107569
 20
286.228068
 42
0.059451
  0
VERTEX
  8
0
 10
273.773677
 20
282.635296
 42
0.046120
  0
VERTEX
  8
0
 10
275.302739
 20
278.960023
 42
0.142494
  0
VERTEX
  8
0
 10
281.650252
 20
272.407585
 42
0.130978
  0
VERTEX
  8
0
 10
290.739867
 20
270.011661
 42
0.131549
  0
VERTEX
  8
0
 10
299.785988
 20
272.460233
 42
0.144267
  0
VERTEX
  8
0
 10
306.022639
 20
279.044377
 42
0.078809
  0
VERTEX
  8
0
 10
307.730088
 20
284.294145
 42
0.084299
  0
VERTEX
  8
0
 10
307.670515
 20
289.688972
 42
0.083758
  0
VERTEX
  8
0
 10
305.829515
 20
294.789829
 42
0.076520
  0
VERTEX
  8
0
 10
302.373161
 20
299.186382
 42
0.062829
  0
VERTEX
  8
0
 10
298.502433
 20
301.986834
 42
0.072999
  0
VERTEX
  8
0
 10
294.244908
 20
303.565546
 42
0.070771
  0
VERTEX
  8
0
 10
289.604186
 20
303.881802
 42
0.054430
  0
SEQEND
  0
POLYLINE
  8
0
 66
1
 70
1
  0
VERTEX
  8
0
 10
271.003738
 20
266.250000
 42
0.012057
  0
VERTEX
  8
0
 10
271.300533
 20
253.808555
 42
0.187813
  0
VERTEX
  8
0
 10
273.004947
 20
249.984344
 42
0.185439
  0
VERTEX
  8
0
 10
276.855439
 20
248.294661
 42
0.011703
  0
VERTEX
  8
0
 10
289.443296
 20
248.000000
 42
0.011179
  0
VERTEX
  8
0
 10
301.297558
 20
248.265063
 42
0.173105
  0
VERTEX
  8
0
 10
305.011340
 20
249.780900
 42
0.197394
  0
VERTEX
  8
0
 10
306.680378
 20
253.230066
 42
0.015228
  0
VERTEX
  8
0
 10
307.000000
 20
263.722506
 42
0.000000
  0
VERTEX
  8
0
 10
307.000000
 20
275.000000
 42
0.000000
  0
VERTEX
  8
0
 10
304.911474
 20
272.911474
 42
-0.062620
  0
VERTEX
  8
0
 10
302.127550
 20
270.749418
 42
-0.035496
  0
VERTEX
  8
0
 10
298.305274
 20
268.835242
 42
-0.035470
  0
VERTEX
  8
0
 10
294.242174
 20
267.477894
 42
-0.061501
  0
VERTEX
  8
0
 10
290.717881
 20
267.021962
 42
-0.070693
  0
VERTEX
  8
0
 10
285.610252
 20
267.717505
 42
-0.063681
  0
VERTEX
  8
0
 10
280.699195
 20
269.815246
 42
-0.061784
  0
VERTEX
  8
0
 10
276.343980
 20
273.155672
 42
-0.059401
  0
VERTEX
  8
0
 10
272.870702
 20
277.500000
 42
0.000000
  0
VERTEX
  8
0
 10
271.007476
 20
280.500000
 42
0.000000
  0
SEQEND
  0
POLYLINE
  8
0
 66
1
 70
1
  0
VERTEX
  8
0
 10
249.654988
 20
243.171259
 42
0.168802
  0
VERTEX
  8
0
 10
248.179799
 20
239.692904
 42
0.015851
  0
VERTEX
  8
0
 10
247.850301
 20
230.272427
 42
0.015294
  0
VERTEX
  8
0
 10
248.108250
 20
220.833405
 42
0.183905
  0
VERTEX
  8
0
 10
249.571429
 20
217.571429
 42
0.164856
  0
VERTEX
  8
0
 10
251.354495
 20
216.691063
 42
0.019645
  0
VERTEX
  8
0
 10
255.802273
 20
216.278168
 42
0.011681
  0
VERTEX
  8
0
 10
263.380994
 20
216.051342
 42
0.001640
  0
VERTEX
  8
0
 10
279.036245
 20
216.000000
 42
0.001206
  0
VERTEX
  8
0
 10
296.543156
 20
216.042224
 42
0.015486
  0
VERTEX
  8
0
 10
303.088698
 20
216.276614
 42
0.042118
  0
VERTEX
  8
0
 10
306.486597
 20
216.793461
 42
0.214257
  0
VERTEX
  8
0
 10
307.964816
 20
217.934259
 42
0.093853
  0
VERTEX
  8
0
 10
308.371307
 20
219.228866
 42
0.009167
  0
VERTEX
  8
0
 10
308.695915
 20
222.505363
 42
0.011352
  0
VERTEX
  8
0
 10
308.924375
 20
226.459503
 42
0.008753
  0
VERTEX
  8
0
 10
309.000000
 20
230.779271
 42
0.005342
  0
VERTEX
  8
0
 10
308.935336
 20
236.831196
 42
0.030797
  0
VERTEX
  8
0
 10
308.670177
 20
240.020697
 42
0.062040
  0
VERTEX
  8
0
 10
308.130050
 20
241.984226
 42
0.111172
  0
VERTEX
  8
0
 10
307.171259
 20
243.345012
 42
0.146309
  0
VERTEX
  8
0
 10
305.223549
 20
244.273897
 42
0.024289
  0
VERTEX
  8
0
 10
301.047102
 20
244.717763
 42
0.012686
  0
VERTEX
  8
0
 10
293.806153
 20
244.949133
 42
0.001643
  0
VERTEX
  8
0
 10
278.326247
 20
245.000000
 42
0.001431
  0
VERTEX
  8
0
 10
262.007241
 20
244.953301
 42
0.014494
  0
VERTEX
  8
0
 10
255.224090
 20
244.717763
 42
0.034099
  0
VERTEX
  8
0
 10
251.504466
 20
244.224401
 42
0.160147
  0
SEQEND
  0
POLYLINE
  8
0
 66
1
 70
1
  0
VERTEX
  8
0
 10
162.000000
 20
170.000000
 42
0.000000
  0
VERTEX
  8
0
 10
162.000000
 20
126.000000
 42
0.000000
  0
VERTEX
  8
0
 10
166.416667
 20
126.000000
 42
0.024146
  0
VERTEX
  8
0
 10
168.135973
 20
126.083076
 42
0.034147
  0
VERTEX
  8
0
 10
169.647435
 20
126.334493
 42
0.036405
  0
VERTEX
  8
0
 10
170.795761
 20
126.697122
 42
0.221098
  0
VERTEX
  8
0
 10
171.212900
 20
127.138701
 42
-0.202411
  0
VERTEX
  8
0
 10
171.572647
 20
127.547899
 42
-0.142157
  0
VERTEX
  8
0
 10
172.184941
 20
127.651600
 42
-0.071439
  0
VERTEX
  8
0
 10
173.124899
 20
127.404283
 42
-0.020680
  0
VERTEX
  8
0
 10
174.484861
 20
126.761924
 42
0.000000
  0
VERTEX
  8
0
 10
177.377255
 20
125.246446
 42
0.000000
  0
VERTEX
  8
0
 10
174.188627
 20
123.597543
 42
-0.009113
  0
VERTEX
  8
0
 10
172.339679
 20
122.683729
 42
-0.100884
  0
VERTEX
  8
0
 10
171.542684
 20
122.488934
 42
-0.313875
  0
VERTEX
  8
0
 10
171.145468
 20
122.743340
 42
-0.098536
  0
VERTEX
  8
0
 10
171.000000
 20
123.474320
 42
0.182858
  0
VERTEX
  8
0
 10
170.730003
 20
124.187904
 42
0.130859
  0
VERTEX
  8
0
 10
170.012624
 20
124.665240
 42
0.065342
  0
VERTEX
  8
0
 10
168.693226
 20
124.927726
 42
0.016472
  0
VERTEX
  8
0
 10
166.500000
 20
125.000000
 42
0.000000
  0
VERTEX
  8
0
 10
162.000000
 20
125.000000
 42
0.000000
  0
VERTEX
  8
0
 10
162.000000
 20
97.500000
 42
0.000000
  0
VERTEX
  8
0
 10
162.000000
 20
70.000000
 42
0.000000
  0
VERTEX
  8
0
 10
259.500000
 20
70.000000
 42
0.000000
  0
VERTEX
  8
0
 10
357.000000
 20
70.000000
 42
0.000000
  0
VERTEX
  8
0
 10
357.000000
 20
142.000000
 42
0.000000
  0
VERTEX
  8
0
 10
357.000000
 20
214.000000
 42
0.000000
  0
VERTEX
  8
0
 10
259.500000
 20
214.000000
 42
0.000000
  0
VERTEX
  8
0
 10
162.000000
 20
214.000000
 42
0.000000
  0
SEQEND
  0
POLYLINE
  8
0
 66
1
 70
1
  0
VERTEX
  8
0
 10
328.500000
 20
126.500000
 42
0.000000
  0
VERTEX
  8
0
 10
328.500000
 20
85.500000
 42
0.000000
  0
VERTEX
  8
0
 10
323.250000
 20
85.197740
 42
0.012298
  0
VERTEX
  8
0
 10
320.434601
 20
84.966065
 42
0.071361
  0
VERTEX
  8
0
 10
318.993891
 20
84.599454
 42
0.157833
  0
VERTEX
  8
0
 10
318.271043
 20
83.984729
 42
0.139131
  0
VERTEX
  8
0
 10
318.000000
 20
83.029528
 42
-0.049931
  0
VERTEX
  8
0
 10
317.753380
 20
80.566093
 42
-0.144367
  0
VERTEX
  8
0
 10
316.960209
 20
79.065757
 42
-0.147555
  0
VERTEX
  8
0
 10
315.492693
 20
78.255005
 42
-0.052984
  0
VERTEX
  8
0
 10
313.093011
 20
78.000000
 42
-0.048895
  0
VERTEX
  8
0
 10
310.326408
 20
78.271195
 42
-0.115919
  0
VERTEX
  8
0
 10
308.453852
 20
79.121466
 42
-0.141131
  0
VERTEX
  8
0
 10
307.376475
 20
80.588786
 42
-0.088463
  0
VERTEX
  8
0
 10
307.000000
 20
82.700000
 42
0.000000
  0
VERTEX
  8
0
 10
307.000000
 20
85.000000
 42
0.000000
  0
VERTEX
  8
0
 10
259.000000
 20
85.000000
 42
0.000595
  0
VERTEX
  8
0
 10
228.048859
 20
84.963148
 42
0.009390
  0
VERTEX
  8
0
 10
217.505824
 20
84.740009
 42
0.021059
  0
VERTEX
  8
0
 10
212.069373
 20
84.292924
 42
0.378296
  0
VERTEX
  8
0
 10
211.000000
 20
83.081787
 42
-0.048798
  0
VERTEX
  8
0
 10
210.755641
 20
80.583984
 42
-0.144203
  0
VERTEX
  8
0
 10
209.965384
 20
79.071471
 42
-0.148763
  0
VERTEX
  8
0
 10
208.499515
 20
78.256262
 42
-0.053093
  0
VERTEX
  8
0
 10
206.093011
 20
78.000000
 42
-0.048804
  0
VERTEX
  8
0
 10
203.336615
 20
78.269691
 42
-0.114577
  0
VERTEX
  8
0
 10
201.461581
 20
79.114284
 42
-0.140471
  0
VERTEX
  8
0
 10
200.379496
 20
80.566722
 42
-0.090543
  0
VERTEX
  8
0
 10
200.000000
 20
82.645209
 42
0.085569
  0
VERTEX
  8
0
 10
199.791426
 20
83.855027
 42
0.186277
  0
VERTEX
  8
0
 10
199.187158
 20
84.558364
 42
0.094137
  0
VERTEX
  8
0
 10
197.941297
 20
84.950542
 42
0.013292
  0
VERTEX
  8
0
 10
195.250000
 20
85.195209
 42
0.000000
  0
VERTEX
  8
0
 10
190.500000
 20
85.500000
 42
0.000000
  0
VERTEX
  8
0
 10
190.238306
 20
125.498335
 42
-0.001149
  0
VERTEX
  8
0
 10
190.172826
 20
140.922080
 42
-0.001828
  0
VERTEX
  8
0
 10
190.195354
 20
154.116864
 42
-0.000368
  0
VERTEX
  8
0
 10
190.266193
 20
165.731097
 42
-0.090136
  0
VERTEX
  8
0
 10
190.459570
 20
166.755237
 42
-0.304940
  0
VERTEX
  8
0
 10
191.483402
 20
167.474511
 42
-0.001499
  0
VERTEX
  8
0
 10
204.781717
 20
167.706714
 42
-0.003831
  0
VERTEX
  8
0
 10
224.184005
 20
167.838622
 42
-0.000718
  0
VERTEX
  8
0
 10
259.721263
 20
167.756901
 42
0.000000
  0
VERTEX
  8
0
 10
328.500000
 20
167.500000
 42
0.000000
  0
SEQEND
  0
POLYLINE
  8
0
 66
1
 70
1
  0
VERTEX
  8
0
 10
180.000000
 20
64.950340
 42
0.083676
  0
VERTEX
  8
0
 10
180.396436
 20
62.598052
 42
0.043077
  0
VERTEX
  8
0
 10
181.617894
 20
59.863062
 42
0.043180
  0
VERTEX
  8
0
 10
183.257684
 20
57.426831
 42
0.100502
  0
VERTEX
  8
0
 10
184.944609
 20
56.029644
 42
0.055521
  0
VERTEX
  8
0
 10
185.935045
 20
55.633512
 42
0.021663
  0
VERTEX
  8
0
 10
187.373402
 20
55.302458
 42
0.021127
  0
VERTEX
  8
0
 10
188.975432
 20
55.075626
 42
0.024607
  0
VERTEX
  8
0
 10
190.511182
 20
55.000000
 42
0.104147
  0
VERTEX
  8
0
 10
193.923901
 20
55.718640
 42
0.085102
  0
VERTEX
  8
0
 10
197.040925
 20
57.782650
 42
0.087113
  0
VERTEX
  8
0
 10
199.234179
 20
60.714145
 42
0.117674
  0
VERTEX
  8
0
 10
200.000000
 20
63.923077
 42
0.000000
  0
VERTEX
  8
0
 10
200.000000
 20
67.000000
 42
0.000000
  0
VERTEX
  8
0
 10
190.000000
 20
67.000000
 42
0.003763
  0
VERTEX
  8
0
 10
183.804804
 20
66.953373
 42
0.046813
  0
VERTEX
  8
0
 10
181.469715
 20
66.698759
 42
0.167338
  0
VERTEX
  8
0
 10
180.413914
 20
66.074789
 42
0.178207
  0
SEQEND
  0
POLYLINE
  8
0
 66
1
 70
1
  0
VERTEX
  8
0
 10
323.000000
 20
64.950340
 42
0.083676
  0
VERTEX
  8
0
 10
323.396436
 20
62.598052
 42
0.043077
  0
VERTEX
  8
0
 10
324.617894
 20
59.863062
 42
0.043180
  0
VERTEX
  8
0
 10
326.257684
 20
57.426831
 42
0.100502
  0
VERTEX
  8
0
 10
327.944609
 20
56.029644
 42
0.055521
  0
VERTEX
  8
0
 10
328.935045
 20
55.633512
 42
0.021663
  0
VERTEX
  8
0
 10
330.373402
 20
55.302458
 42
0.021127
  0
VERTEX
  8
0
 10
331.975432
 20
55.075626
 42
0.024607
  0
VERTEX
  8
0
 10
333.511182
 20
55.000000
 42
0.104147
  0
VERTEX
  8
0
 10
336.923901
 20
55.718640
 42
0.085102
  0
VERTEX
  8
0
 10
340.040925
 20
57.782650
 42
0.087113
  0
VERTEX
  8
0
 10
342.234179
 20
60.714145
 42
0.117674
  0
VERTEX
  8
0
 10
343.000000
 20
63.923077
 42
0.000000
  0
VERTEX
  8
0
 10
343.000000
 20
67.000000
 42
0.000000
  0
VERTEX
  8
0
 10
333.000000
 20
67.000000
 42
0.003763
  0
VERTEX
  8
0
 10
326.804804
 20
66.953373
 42
0.046813
  0
VERTEX
  8
0
 10
324.469715
 20
66.698759
 42
0.167338
  0
VERTEX
  8
0
 10
323.413914
 20
66.074789
 42
0.178207
  0
SEQEND
  0
POLYLINE
  8
0
 66
1
 70
1
  0
VERTEX
  8
0
 10
120.000000
 20
37.000000
 42
0.099038
  0
VERTEX
  8
0
 10
120.076342
 20
36.618362
 42
0.097945
  0
VERTEX
  8
0
 10
120.293750
 20
36.293750
 42
0.097945
  0
VERTEX
  8
0
 10
120.618362
 20
36.076342
 42
0.099038
  0
VERTEX
  8
0
 10
121.000000
 20
36.000000
 42
0.099038
  0
VERTEX
  8
0
 10
121.381638
 20
36.076342
 42
0.097945
  0
VERTEX
  8
0
 10
121.706250
 20
36.293750
 42
0.097945
  0
VERTEX
  8
0
 10
121.923658
 20
36.618362
 42
0.099038
  0
VERTEX
  8
0
 10
122.000000
 20
37.000000
 42
0.099038
  0
VERTEX
  8
0
 10
121.923658
 20
37.381638
 42
0.097945
  0
VERTEX
  8
0
 10
121.706250
 20
37.706250
 42
0.097945
  0
VERTEX
  8
0
 10
121.381638
 20
37.923658
 42
0.099038
  0
VERTEX
  8
0
 10
121.000000
 20
38.000000
 42
0.099038
  0
VERTEX
  8
0
 10
120.618362
 20
37.923658
 42
0.097945
  0
VERTEX
  8
0
 10
120.293750
 20
37.706250
 42
0.097945
  0
VERTEX
  8
0
 10
120.076342
 20
37.381638
 42
0.099038
  0
SEQEND
  0
POLYLINE
  8
0
 66
1
 70
1
  0
VERTEX
  8
0
 10
196.000000
 20
37.000000
 42
0.099038
  0
VERTEX
  8
0
 10
196.076342
 20
36.618362
 42
0.097945
  0
VERTEX
  8
0
 10
196.293750
 20
36.293750
 42
0.097945
  0
VERTEX
  8
0
 10
196.618362
 20
36.076342
 42
0.099038
  0
VERTEX
  8
0
 10
197.000000
 20
36.000000
 42
0.099038
  0
VERTEX
  8
0
 10
197.381638
 20
36.076342
 42
0.097945
  0
VERTEX
  8
0
 10
197.706250
 20
36.293750
 42
0.097945
  0
VERTEX
  8
0
 10
197.923658
 20
36.618362
 42
0.099038
  0
VERTEX
  8
0
 10
198.000000
 20
37.000000
 42
0.099038
  0
VERTEX
  8
0
 10
197.923658
 20
37.381638
 42
0.097945
  0
VERTEX
  8
0
 10
197.706250
 20
37.706250
 42
0.097945
  0
VERTEX
  8
0
 10
197.381638
 20
37.923658
 42
0.099038
  0
VERTEX
  8
0
 10
197.000000
 20
38.000000
 42
0.099038
  0
VERTEX
  8
0
 10
196.618362
 20
37.923658
 42
0.097945
  0
VERTEX
  8
0
 10
196.293750
 20
37.706250
 42
0.097945
  0
VERTEX
  8
0
 10
196.076342
 20
37.381638
 42
0.099038
  0
SEQEND
  0
POLYLINE
  8
0
 66
1
 70
1
  0
VERTEX
  8
0
 10
369.000000
 20
29.000000
 42
0.009164
  0
VERTEX
  8
0
 10
369.066717
 20
25.360273
 42
0.018502
  0
VERTEX
  8
0
 10
369.277778
 20
22.500000
 42
0.014491
  0
VERTEX
  8
0
 10
369.579235
 20
20.355190
 42
0.365646
  0
VERTEX
  8
0
 10
370.000000
 20
20.000000
 42
0.365646
  0
VERTEX
  8
0
 10
370.420765
 20
20.355190
 42
0.014491
  0
VERTEX
  8
0
 10
370.722222
 20
22.500000
 42
0.018502
  0
VERTEX
  8
0
 10
370.933283
 20
25.360273
 42
0.009164
  0
VERTEX
  8
0
 10
371.000000
 20
29.000000
 42
0.009164
  0
VERTEX
  8
0
 10
370.933283
 20
32.639727
 42
0.018502
  0
VERTEX
  8
0
 10
370.722222
 20
35.500000
 42
0.014491
  0
VERTEX
  8
0
 10
370.420765
 20
37.644810
 42
0.365646
  0
VERTEX
  8
0
 10
370.000000
 20
38.000000
 42
0.365646
  0
VERTEX
  8
0
 10
369.579235
 20
37.644810
 42
0.014491
  0
VERTEX
  8
0
 10
369.277778
 20
35.500000
 42
0.018502
  0
VERTEX
  8
0
 10
369.066717
 20
32.639727
 42
0.009164
  0
SEQEND
  0
POLYLINE
  8
0
 66
1
 70
1
  0
VERTEX
  8
0
 10
397.000000
 20
37.000000
 42
0.099038
  0
VERTEX
  8
0
 10
397.076342
 20
36.618362
 42
0.097945
  0
VERTEX
  8
0
 10
397.293750
 20
36.293750
 42
0.097945
  0
VERTEX
  8
0
 10
397.618362
 20
36.076342
 42
0.099038
  0
VERTEX
  8
0
 10
398.000000
 20
36.000000
 42
0.099038
  0
VERTEX
  8
0
 10
398.381638
 20
36.076342
 42
0.097945
  0
VERTEX
  8
0
 10
398.706250
 20
36.293750
 42
0.097945
  0
VERTEX
  8
0
 10
398.923658
 20
36.618362
 42
0.099038
  0
VERTEX
  8
0
 10
399.000000
 20
37.000000
 42
0.099038
  0
VERTEX
  8
0
 10
398.923658
 20
37.381638
 42
0.097945
  0
VERTEX
  8
0
 10
398.706250
 20
37.706250
 42
0.097945
  0
VERTEX
  8
0
 10
398.381638
 20
37.923658
 42
0.099038
  0
VERTEX
  8
0
 10
398.000000
 20
38.000000
 42
0.099038
  0
VERTEX
  8
0
 10
397.618362
 20
37.923658
 42
0.097945
  0
VERTEX
  8
0
 10
397.293750
 20
37.706250
 42
0.097945
  0
VERTEX
  8
0
 10
397.076342
 20
37.381638
 42
0.099038
  0
SEQEND
  0
POLYLINE
  8
0
 66
1
 70
1
  0
VERTEX
  8
0
 10
76.000000
 20
28.500000
 42
0.009838
  0
VERTEX
  8
0
 10
76.067280
 20
25.081088
 42
0.019442
  0
VERTEX
  8
0
 10
76.279412
 20
22.375000
 42
0.015687
  0
VERTEX
  8
0
 10
76.582553
 20
20.348392
 42
0.362465
  0
VERTEX
  8
0
 10
77.000000
 20
20.000000
 42
0.347458
  0
VERTEX
  8
0
 10
77.402556
 20
20.318152
 42
0.021254
  0
VERTEX
  8
0
 10
77.712687
 20
21.925000
 42
0.023718
  0
VERTEX
  8
0
 10
77.930026
 20
24.075278
 42
0.013327
  0
VERTEX
  8
0
 10
78.000000
 20
26.700000
 42
-0.008537
  0
VERTEX
  8
0
 10
78.084527
 20
31.650526
 42
-0.471143
  0
VERTEX
  8
0
 10
78.733252
 20
32.149918
 42
-0.236316
  0
VERTEX
  8
0
 10
79.649324
 20
31.395921
 42
-0.004829
  0
VERTEX
  8
0
 10
82.084874
 20
25.767066
 42
0.007746
  0
VERTEX
  8
0
 10
83.051476
 20
23.568414
 42
0.012155
  0
VERTEX
  8
0
 10
83.956835
 20
21.713169
 42
0.006265
  0
VERTEX
  8
0
 10
84.764950
 20
20.201170
 42
0.265295
  0
VERTEX
  8
0
 10
85.066052
 20
20.017066
 42
0.278132
  0
VERTEX
  8
0
 10
85.376407
 20
20.191649
 42
0.004646
  0
VERTEX
  8
0
 10
86.372981
 20
21.987826
 42
0.010464
  0
VERTEX
  8
0
 10
87.495652
 20
24.163753
 42
0.006580
  0
VERTEX
  8
0
 10
88.720291
 20
26.750000
 42
0.000000
  0
VERTEX
  8
0
 10
91.808478
 20
33.500000
 42
0.000000
  0
VERTEX
  8
0
 10
91.904239
 20
26.750000
 42
0.013573
  0
VERTEX
  8
0
 10
92.012397
 20
24.134554
 42
0.023118
  0
VERTEX
  8
0
 10
92.262757
 20
21.961440
 42
0.019835
  0
VERTEX
  8
0
 10
92.597342
 20
20.315918
 42
0.345471
  0
VERTEX
  8
0
 10
93.000000
 20
20.000000
 42
0.362465
  0
VERTEX
  8
0
 10
93.417447
 20
20.348392
 42
0.015687
  0
VERTEX
  8
0
 10
93.720588
 20
22.375000
 42
0.019442
  0
VERTEX
  8
0
 10
93.932720
 20
25.081088
 42
0.009838
  0
VERTEX
  8
0
 10
94.000000
 20
28.500000
 42
0.012451
  0
VERTEX
  8
0
 10
93.825768
 20
35.495440
 42
0.316146
  0
VERTEX
  8
0
 10
92.713361
 20
36.922244
 42
0.362247
  0
VERTEX
  8
0
 10
91.163818
 20
36.269109
 42
0.014012
  0
VERTEX
  8
0
 10
88.265279
 20
30.250000
 42
0.000000
  0
VERTEX
  8
0
 10
85.244739
 20
23.500000
 42
0.000000
  0
VERTEX
  8
0
 10
82.028113
 20
30.250000
 42
0.014307
  0
VERTEX
  8
0
 10
78.946451
 20
36.267206
 42
0.351323
  0
VERTEX
  8
0
 10
77.328561
 20
36.938242
 42
0.319173
  0
VERTEX
  8
0
 10
76.183449
 20
35.493903
 42
0.013113
  0
SEQEND
  0
POLYLINE
  8
0
 66
1
 70
1
  0
VERTEX
  8
0
 10
154.000000
 20
28.627229
 42
0.000000
  0
VERTEX
  8
0
 10
154.000000
 20
20.000000
 42
0.000000
  0
VERTEX
  8
0
 10
158.076923
 20
20.000000
 42
0.034958
  0
VERTEX
  8
0
 10
160.252776
 20
20.152312
 42
0.066184
  0
VERTEX
  8
0
 10
161.942890
 20
20.623614
 42
0.064243
  0
VERTEX
  8
0
 10
163.483477
 20
21.531319
 42
0.031173
  0
VERTEX
  8
0
 10
165.200237
 20
23.046391
 42
0.024583
  0
VERTEX
  8
0
 10
166.822761
 20
24.836815
 42
0.083875
  0
VERTEX
  8
0
 10
167.601150
 20
26.197155
 42
0.093502
  0
VERTEX
  8
0
 10
167.845315
 20
27.655324
 42
0.035095
  0
VERTEX
  8
0
 10
167.656854
 20
29.727137
 42
0.056345
  0
VERTEX
  8
0
 10
166.769005
 20
32.892693
 42
0.125097
  0
VERTEX
  8
0
 10
165.293485
 20
34.895645
 42
0.110162
  0
VERTEX
  8
0
 10
162.904600
 20
36.101734
 42
0.038095
  0
VERTEX
  8
0
 10
159.074668
 20
36.766847
 42
0.000000
  0
VERTEX
  8
0
 10
154.000000
 20
37.254459
 42
0.000000
  0
SEQEND
  0
POLYLINE
  8
0
 66
1
 70
1
  0
VERTEX
  8
0
 10
163.777494
 20
33.443296
 42
-0.185811
  0
VERTEX
  8
0
 10
165.837349
 20
30.382441
 42
-0.156360
  0
VERTEX
  8
0
 10
165.502408
 20
26.464760
 42
-0.142765
  0
VERTEX
  8
0
 10
162.881594
 20
23.217911
 42
-0.153201
  0
VERTEX
  8
0
 10
159.000000
 20
22.000000
 42
0.000000
  0
VERTEX
  8
0
 10
156.000000
 20
22.000000
 42
0.000000
  0
VERTEX
  8
0
 10
156.000000
 20
28.500000
 42
-0.006002
  0
VERTEX
  8
0
 10
156.051112
 20
32.757666
 42
-0.095240
  0
VERTEX
  8
0
 10
156.356827
 20
34.164940
 42
-0.237405
  0
VERTEX
  8
0
 10
157.114319
 20
34.803997
 42
-0.058721
  0
VERTEX
  8
0
 10
158.777494
 20
35.000000
 42
-0.046039
  0
VERTEX
  8
0
 10
160.003100
 20
34.886908
 42
-0.029459
  0
VERTEX
  8
0
 10
161.391960
 20
34.542718
 42
-0.029522
  0
VERTEX
  8
0
 10
162.724537
 20
34.039831
 42
-0.047819
  0
SEQEND
  0
POLYLINE
  8
0
 66
1
 70
1
  0
VERTEX
  8
0
 10
227.750000
 20
35.943657
 42
0.087447
  0
VERTEX
  8
0
 10
227.080170
 20
35.365657
 42
0.054468
  0
VERTEX
  8
0
 10
226.514062
 20
34.493204
 42
0.052606
  0
VERTEX
  8
0
 10
226.129854
 20
33.477507
 42
0.064218
  0
VERTEX
  8
0
 10
226.000000
 20
32.470634
 42
0.088799
  0
VERTEX
  8
0
 10
226.227822
 20
31.197957
 42
0.095248
  0
VERTEX
  8
0
 10
226.881289
 20
30.118100
 42
0.067492
  0
VERTEX
  8
0
 10
228.090128
 20
29.095976
 42
0.023848
  0
VERTEX
  8
0
 10
230.063201
 20
27.967757
 42
-0.049139
  0
VERTEX
  8
0
 10
233.107632
 20
26.016616
 42
-0.245840
  0
VERTEX
  8
0
 10
233.908474
 20
24.225876
 42
-0.321224
  0
VERTEX
  8
0
 10
232.843032
 20
22.916957
 42
-0.066588
  0
VERTEX
  8
0
 10
229.726041
 20
22.500000
 42
0.025484
  0
VERTEX
  8
0
 10
228.320389
 20
22.428311
 42
0.046189
  0
VERTEX
  8
0
 10
227.191489
 20
22.206250
 42
0.067294
  0
VERTEX
  8
0
 10
226.470749
 20
21.883589
 42
0.347414
  0
VERTEX
  8
0
 10
226.332138
 20
21.500000
 42
0.268555
  0
VERTEX
  8
0
 10
227.756498
 20
20.240417
 42
0.079243
  0
VERTEX
  8
0
 10
230.782036
 20
20.115706
 42
0.074765
  0
VERTEX
  8
0
 10
233.852389
 20
20.952942
 42
0.199829
  0
VERTEX
  8
0
 10
235.386113
 20
22.563810
 42
0.139983
  0
VERTEX
  8
0
 10
235.544060
 20
24.348945
 42
0.101336
  0
VERTEX
  8
0
 10
234.777329
 20
26.204234
 42
0.073844
  0
VERTEX
  8
0
 10
233.061293
 20
28.078725
 42
0.037276
  0
VERTEX
  8
0
 10
230.424853
 20
29.911836
 42
-0.014285
  0
VERTEX
  8
0
 10
228.451746
 20
31.153313
 42
-0.104881
  0
VERTEX
  8
0
 10
227.678867
 20
31.947792
 42
-0.223927
  0
VERTEX
  8
0
 10
227.586820
 20
32.698312
 42
-0.093817
  0
VERTEX
  8
0
 10
228.092133
 20
33.611013
 42
-0.086783
  0
VERTEX
  8
0
 10
228.823070
 20
34.232872
 42
-0.065492
  0
VERTEX
  8
0
 10
229.795567
 20
34.645197
 42
-0.058487
  0
VERTEX
  8
0
 10
230.950719
 20
34.823769
 42
-0.045597
  0
VERTEX
  8
0
 10
232.220037
 20
34.754398
 42
0.027540
  0
VERTEX
  8
0
 10
233.377173
 20
34.649201
 42
0.074523
  0
VERTEX
  8
0
 10
234.194223
 20
34.742068
 42
0.153620
  0
VERTEX
  8
0
 10
234.621304
 20
35.013892
 42
0.259527
  0
VERTEX
  8
0
 10
234.699800
 20
35.419242
 42
0.234835
  0
VERTEX
  8
0
 10
233.826764
 20
36.305511
 42
0.064161
  0
VERTEX
  8
0
 10
231.847378
 20
36.713892
 42
0.059920
  0
VERTEX
  8
0
 10
229.579712
 20
36.613181
 42
0.093624
  0
SEQEND
  0
POLYLINE
  8
0
 66
1
 70
1
  0
VERTEX
  8
0
 10
113.000000
 20
34.083333
 42
-0.059690
  0
VERTEX
  8
0
 10
112.906984
 20
33.306958
 42
-0.056352
  0
VERTEX
  8
0
 10
112.632812
 20
32.558333
 42
-0.060661
  0
VERTEX
  8
0
 10
112.228455
 20
31.947597
 42
-0.107454
  0
VERTEX
  8
0
 10
111.750000
 20
31.583333
 42
0.029131
  0
VERTEX
  8
0
 10
111.142530
 20
31.255505
 42
0.260055
  0
VERTEX
  8
0
 10
111.000000
 20
31.000000
 42
0.260055
  0
VERTEX
  8
0
 10
111.142530
 20
30.744495
 42
0.029131
  0
VERTEX
  8
0
 10
111.750000
 20
30.416667
 42
-0.182286
  0
VERTEX
  8
0
 10
112.251456
 20
29.903191
 42
-0.042383
  0
VERTEX
  8
0
 10
112.646959
 20
28.741809
 42
-0.036776
  0
VERTEX
  8
0
 10
112.912709
 20
27.193574
 42
-0.024122
  0
VERTEX
  8
0
 10
113.000000
 20
25.385282
 42
0.021074
  0
VERTEX
  8
0
 10
113.086683
 20
23.329539
 42
0.053255
  0
VERTEX
  8
0
 10
113.370012
 20
21.861800
 42
0.079885
  0
VERTEX
  8
0
 10
113.850636
 20
20.883210
 42
0.148176
  0
VERTEX
  8
0
 10
114.543128
 20
20.345077
 42
0.087473
  0
VERTEX
  8
0
 10
115.817648
 20
20.097442
 42
0.193523
  0
VERTEX
  8
0
 10
116.727186
 20
20.444910
 42
0.328408
  0
VERTEX
  8
0
 10
116.860062
 20
21.139794
 42
0.143865
  0
VERTEX
  8
0
 10
116.197614
 20
21.877868
 42
-0.174548
  0
VERTEX
  8
0
 10
114.728879
 20
23.725624
 42
-0.100203
  0
VERTEX
  8
0
 10
114.366244
 20
26.582602
 42
-0.116234
  0
VERTEX
  8
0
 10
115.146558
 20
29.061914
 42
-0.264537
  0
VERTEX
  8
0
 10
116.795550
 20
30.000000
 42
0.087941
  0
VERTEX
  8
0
 10
117.439895
 20
30.114212
 42
0.398371
  0
VERTEX
  8
0
 10
117.594553
 20
30.425016
 42
0.119169
  0
VERTEX
  8
0
 10
117.263639
 20
30.985044
 42
0.012466
  0
VERTEX
  8
0
 10
116.166388
 20
32.059613
 42
-0.033827
  0
VERTEX
  8
0
 10
115.362507
 20
32.917099
 42
-0.047015
  0
VERTEX
  8
0
 10
114.775780
 20
33.790454
 42
-0.056363
  0
VERTEX
  8
0
 10
114.465569
 20
34.556017
 42
-0.209475
  0
VERTEX
  8
0
 10
114.536843
 20
35.059613
 42
0.089466
  0
VERTEX
  8
0
 10
114.678207
 20
35.418620
 42
0.168257
  0
VERTEX
  8
0
 10
114.636223
 20
35.723761
 42
0.177038
  0
VERTEX
  8
0
 10
114.417837
 20
35.927303
 42
0.100281
  0
VERTEX
  8
0
 10
114.059017
 20
36.000000
 42
0.175650
  0
VERTEX
  8
0
 10
113.654893
 20
35.853512
 42
0.092893
  0
VERTEX
  8
0
 10
113.311086
 20
35.436979
 42
0.073085
  0
VERTEX
  8
0
 10
113.078377
 20
34.816614
 42
0.053291
  0
SEQEND
  0
POLYLINE
  8
0
 66
1
 70
1
  0
VERTEX
  8
0
 10
261.000000
 20
34.142350
 42
-0.057993
  0
VERTEX
  8
0
 10
260.907021
 20
33.343399
 42
-0.055725
  0
VERTEX
  8
0
 10
260.632812
 20
32.575670
 42
-0.060329
  0
VERTEX
  8
0
 10
260.228532
 20
31.951675
 42
-0.110134
  0
VERTEX
  8
0
 10
259.750000
 20
31.583333
 42
0.029131
  0
VERTEX
  8
0
 10
259.142530
 20
31.255505
 42
0.260055
  0
VERTEX
  8
0
 10
259.000000
 20
31.000000
 42
0.260055
  0
VERTEX
  8
0
 10
259.142530
 20
30.744495
 42
0.029131
  0
VERTEX
  8
0
 10
259.750000
 20
30.416667
 42
-0.182286
  0
VERTEX
  8
0
 10
260.251456
 20
29.903191
 42
-0.042383
  0
VERTEX
  8
0
 10
260.646959
 20
28.741809
 42
-0.036776
  0
VERTEX
  8
0
 10
260.912709
 20
27.193574
 42
-0.024122
  0
VERTEX
  8
0
 10
261.000000
 20
25.385282
 42
0.044625
  0
VERTEX
  8
0
 10
261.260190
 20
22.475814
 42
0.133960
  0
VERTEX
  8
0
 10
262.110897
 20
20.690706
 42
0.222125
  0
VERTEX
  8
0
 10
263.445715
 20
20.090463
 42
0.135574
  0
VERTEX
  8
0
 10
265.135736
 20
20.583890
 42
0.077975
  0
VERTEX
  8
0
 10
265.589381
 20
20.973187
 42
0.297653
  0
VERTEX
  8
0
 10
265.634471
 20
21.325345
 42
0.168448
  0
VERTEX
  8
0
 10
265.295398
 20
21.664674
 42
0.028668
  0
VERTEX
  8
0
 10
264.439133
 20
22.021351
 42
-0.213523
  0
VERTEX
  8
0
 10
262.875457
 20
23.501899
 42
-0.098752
  0
VERTEX
  8
0
 10
262.321164
 20
26.306764
 42
-0.099304
  0
VERTEX
  8
0
 10
262.886083
 20
29.097595
 42
-0.217581
  0
VERTEX
  8
0
 10
264.454142
 20
30.542750
 42
0.007558
  0
VERTEX
  8
0
 10
265.659766
 20
30.957412
 42
0.247304
  0
VERTEX
  8
0
 10
265.860998
 20
31.178003
 42
0.397412
  0
VERTEX
  8
0
 10
265.747203
 20
31.385370
 42
0.012852
  0
VERTEX
  8
0
 10
264.750000
 20
31.679321
 42
-0.068462
  0
VERTEX
  8
0
 10
264.081066
 20
31.960303
 42
-0.068789
  0
VERTEX
  8
0
 10
263.514063
 20
32.411121
 42
-0.075008
  0
VERTEX
  8
0
 10
263.131247
 20
32.956564
 42
-0.116074
  0
VERTEX
  8
0
 10
263.000000
 20
33.514307
 42
0.064876
  0
VERTEX
  8
0
 10
262.925860
 20
34.083297
 42
0.051892
  0
VERTEX
  8
0
 10
262.706250
 20
34.661764
 42
0.053430
  0
VERTEX
  8
0
 10
262.382760
 20
35.162825
 42
0.084495
  0
VERTEX
  8
0
 10
262.000000
 20
35.500000
 42
0.191977
  0
VERTEX
  8
0
 10
261.621713
 20
35.566586
 42
0.184772
  0
VERTEX
  8
0
 10
261.293750
 20
35.356129
 42
0.109046
  0
VERTEX
  8
0
 10
261.071713
 20
34.855723
 42
0.050137
  0
SEQEND
  0
POLYLINE
  8
0
 66
1
 70
1
  0
VERTEX
  8
0
 10
99.000000
 20
30.000000
 42
0.069596
  0
VERTEX
  8
0
 10
97.628003
 20
28.181792
 42
0.113111
  0
VERTEX
  8
0
 10
97.091681
 20
26.332004
 42
0.107977
  0
VERTEX
  8
0
 10
97.404385
 20
24.371695
 42
0.059497
  0
VERTEX
  8
0
 10
98.556704
 20
22.222506
 42
0.179524
  0
VERTEX
  8
0
 10
101.308849
 20
20.321344
 42
0.148063
  0
VERTEX
  8
0
 10
104.894495
 20
20.481854
 42
0.143302
  0
VERTEX
  8
0
 10
107.871824
 20
22.622673
 42
0.167218
  0
VERTEX
  8
0
 10
109.000000
 20
25.901716
 42
0.140345
  0
VERTEX
  8
0
 10
108.032535
 20
29.280574
 42
0.157306
  0
VERTEX
  8
0
 10
105.454655
 20
31.456327
 42
0.156665
  0
VERTEX
  8
0
 10
102.082660
 20
31.720377
 42
0.139072
  0
SEQEND
  0
POLYLINE
  8
0
 66
1
 70
1
  0
VERTEX
  8
0
 10
105.960131
 20
28.548039
 42
-0.109759
  0
VERTEX
  8
0
 10
106.726294
 20
27.054867
 42
-0.114637
  0
VERTEX
  8
0
 10
106.771189
 20
25.402406
 42
-0.109512
  0
VERTEX
  8
0
 10
106.075435
 20
23.841364
 42
-0.093108
  0
VERTEX
  8
0
 10
104.750000
 20
22.612298
 42
-0.196771
  0
VERTEX
  8
0
 10
102.307845
 20
22.184453
 42
-0.172911
  0
VERTEX
  8
0
 10
100.099427
 20
23.561594
 42
-0.163644
  0
VERTEX
  8
0
 10
99.184966
 20
26.095328
 42
-0.180595
  0
VERTEX
  8
0
 10
100.039869
 20
28.548039
 42
-0.109607
  0
VERTEX
  8
0
 10
101.367134
 20
29.577563
 42
-0.110797
  0
VERTEX
  8
0
 10
103.000000
 20
29.943895
 42
-0.110797
  0
VERTEX
  8
0
 10
104.632866
 20
29.577563
 42
-0.109607
  0
SEQEND
  0
POLYLINE
  8
0
 66
1
 70
1
  0
VERTEX
  8
0
 10
120.000000
 20
26.000000
 42
0.015416
  0
VERTEX
  8
0
 10
120.071434
 20
23.683687
 42
0.025878
  0
VERTEX
  8
0
 10
120.291667
 20
21.750000
 42
0.024068
  0
VERTEX
  8
0
 10
120.604992
 20
20.303225
 42
0.339565
  0
VERTEX
  8
0
 10
121.000000
 20
20.000000
 42
0.339565
  0
VERTEX
  8
0
 10
121.395008
 20
20.303225
 42
0.024068
  0
VERTEX
  8
0
 10
121.708333
 20
21.750000
 42
0.025878
  0
VERTEX
  8
0
 10
121.928566
 20
23.683687
 42
0.015416
  0
VERTEX
  8
0
 10
122.000000
 20
26.000000
 42
0.015416
  0
VERTEX
  8
0
 10
121.928566
 20
28.316313
 42
0.025878
  0
VERTEX
  8
0
 10
121.708333
 20
30.250000
 42
0.024068
  0
VERTEX
  8
0
 10
121.395008
 20
31.696775
 42
0.339565
  0
VERTEX
  8
0
 10
121.000000
 20
32.000000
 42
0.339565
  0
VERTEX
  8
0
 10
120.604992
 20
31.696775
 42
0.024068
  0
VERTEX
  8
0
 10
120.291667
 20
30.250000
 42
0.025878
  0
VERTEX
  8
0
 10
120.071434
 20
28.316313
 42
0.015416
  0
SEQEND
  0
POLYLINE
  8
0
 66
1
 70
1
  0
VERTEX
  8
0
 10
127.000000
 20
30.000000
 42
0.069596
  0
VERTEX
  8
0
 10
125.628003
 20
28.181792
 42
0.113111
  0
VERTEX
  8
0
 10
125.091681
 20
26.332004
 42
0.107977
  0
VERTEX
  8
0
 10
125.404385
 20
24.371695
 42
0.059497
  0
VERTEX
  8
0
 10
126.556704
 20
22.222506
 42
0.179524
  0
VERTEX
  8
0
 10
129.308849
 20
20.321344
 42
0.148063
  0
VERTEX
  8
0
 10
132.894495
 20
20.481854
 42
0.143302
  0
VERTEX
  8
0
 10
135.871824
 20
22.622673
 42
0.167218
  0
VERTEX
  8
0
 10
137.000000
 20
25.901716
 42
0.140345
  0
VERTEX
  8
0
 10
136.032535
 20
29.280574
 42
0.157306
  0
VERTEX
  8
0
 10
133.454655
 20
31.456327
 42
0.156665
  0
VERTEX
  8
0
 10
130.082660
 20
31.720377
 42
0.139072
  0
SEQEND
  0
POLYLINE
  8
0
 66
1
 70
1
  0
VERTEX
  8
0
 10
133.960131
 20
28.548039
 42
-0.180595
  0
VERTEX
  8
0
 10
134.815034
 20
26.095328
 42
-0.163644
  0
VERTEX
  8
0
 10
133.900573
 20
23.561594
 42
-0.172911
  0
VERTEX
  8
0
 10
131.692155
 20
22.184453
 42
-0.196771
  0
VERTEX
  8
0
 10
129.250000
 20
22.612298
 42
-0.093108
  0
VERTEX
  8
0
 10
127.924565
 20
23.841364
 42
-0.109512
  0
VERTEX
  8
0
 10
127.228811
 20
25.402406
 42
-0.114637
  0
VERTEX
  8
0
 10
127.273706
 20
27.054867
 42
-0.109759
  0
VERTEX
  8
0
 10
128.039869
 20
28.548039
 42
-0.109607
  0
VERTEX
  8
0
 10
129.367134
 20
29.577563
 42
-0.110797
  0
VERTEX
  8
0
 10
131.000000
 20
29.943895
 42
-0.110797
  0
VERTEX
  8
0
 10
132.632866
 20
29.577563
 42
-0.109607
  0
SEQEND
  0
POLYLINE
  8
0
 66
1
 70
1
  0
VERTEX
  8
0
 10
140.000000
 20
26.000000
 42
0.015416
  0
VERTEX
  8
0
 10
140.071434
 20
23.683687
 42
0.025878
  0
VERTEX
  8
0
 10
140.291667
 20
21.750000
 42
0.024068
  0
VERTEX
  8
0
 10
140.604992
 20
20.303225
 42
0.339565
  0
VERTEX
  8
0
 10
141.000000
 20
20.000000
 42
0.291777
  0
VERTEX
  8
0
 10
141.386779
 20
20.246710
 42
0.045736
  0
VERTEX
  8
0
 10
141.706250
 20
21.139032
 42
0.038769
  0
VERTEX
  8
0
 10
141.927578
 20
22.391587
 42
0.024354
  0
VERTEX
  8
0
 10
142.000000
 20
23.877555
 42
-0.058888
  0
VERTEX
  8
0
 10
142.326504
 20
26.640167
 42
-0.106921
  0
VERTEX
  8
0
 10
143.307973
 20
28.680733
 42
-0.152536
  0
VERTEX
  8
0
 10
144.772013
 20
29.696824
 42
-0.169182
  0
VERTEX
  8
0
 10
146.487265
 20
29.643260
 42
-0.153676
  0
VERTEX
  8
0
 10
147.163426
 20
29.106056
 42
-0.076836
  0
VERTEX
  8
0
 10
147.634515
 20
28.108212
 42
-0.051395
  0
VERTEX
  8
0
 10
147.914256
 20
26.613516
 42
-0.020582
  0
VERTEX
  8
0
 10
148.000000
 20
24.531385
 42
0.021730
  0
VERTEX
  8
0
 10
148.075766
 20
22.788843
 42
0.035331
  0
VERTEX
  8
0
 10
148.308054
 20
21.326584
 42
0.039980
  0
VERTEX
  8
0
 10
148.642669
 20
20.275071
 42
0.304628
  0
VERTEX
  8
0
 10
149.052260
 20
20.000000
 42
0.321760
  0
VERTEX
  8
0
 10
149.472409
 20
20.301599
 42
0.045257
  0
VERTEX
  8
0
 10
149.735814
 20
21.401034
 42
0.034756
  0
VERTEX
  8
0
 10
149.858367
 20
23.027371
 42
0.016098
  0
VERTEX
  8
0
 10
149.802260
 20
25.147006
 42
0.042594
  0
VERTEX
  8
0
 10
149.249499
 20
28.964578
 42
0.133842
  0
VERTEX
  8
0
 10
148.030011
 20
31.223427
 42
0.218226
  0
VERTEX
  8
0
 10
146.243293
 20
31.936947
 42
0.127808
  0
VERTEX
  8
0
 10
144.003456
 20
31.234231
 42
-0.030186
  0
VERTEX
  8
0
 10
143.191703
 20
30.792987
 42
-0.079412
  0
VERTEX
  8
0
 10
142.556822
 20
30.611079
 42
-0.169236
  0
VERTEX
  8
0
 10
142.165174
 20
30.696498
 42
-0.260878
  0
VERTEX
  8
0
 10
142.000000
 20
30.991526
 42
0.098179
  0
VERTEX
  8
0
 10
141.923689
 20
31.376411
 42
0.097739
  0
VERTEX
  8
0
 10
141.706250
 20
31.703761
 42
0.098144
  0
VERTEX
  8
0
 10
141.381626
 20
31.922980
 42
0.099904
  0
VERTEX
  8
0
 10
141.000000
 20
32.000000
 42
0.339565
  0
VERTEX
  8
0
 10
140.604992
 20
31.696775
 42
0.024068
  0
VERTEX
  8
0
 10
140.291667
 20
30.250000
 42
0.025878
  0
VERTEX
  8
0
 10
140.071434
 20
28.316313
 42
0.015416
  0
SEQEND
  0
POLYLINE
  8
0
 66
1
 70
1
  0
VERTEX
  8
0
 10
172.000000
 20
30.000000
 42
0.144193
  0
VERTEX
  8
0
 10
170.291934
 20
26.865866
 42
0.157066
  0
VERTEX
  8
0
 10
170.634056
 20
23.421764
 42
0.162557
  0
VERTEX
  8
0
 10
172.898714
 20
20.905869
 42
0.154921
  0
VERTEX
  8
0
 10
176.269052
 20
20.193806
 42
0.036228
  0
VERTEX
  8
0
 10
177.476886
 20
20.403142
 42
0.043987
  0
VERTEX
  8
0
 10
178.562735
 20
20.777443
 42
0.049749
  0
VERTEX
  8
0
 10
179.386817
 20
21.248500
 42
0.160071
  0
VERTEX
  8
0
 10
179.756548
 20
21.750680
 42
0.093254
  0
VERTEX
  8
0
 10
179.820371
 20
22.234244
 42
0.259599
  0
VERTEX
  8
0
 10
179.643873
 20
22.514063
 42
0.173619
  0
VERTEX
  8
0
 10
179.234596
 20
22.578547
 42
0.044746
  0
VERTEX
  8
0
 10
178.581324
 20
22.392833
 42
-0.102808
  0
VERTEX
  8
0
 10
176.810637
 20
22.104334
 42
-0.049756
  0
VERTEX
  8
0
 10
174.528337
 20
22.432513
 42
-0.049829
  0
VERTEX
  8
0
 10
172.561862
 20
23.132157
 42
-0.290100
  0
VERTEX
  8
0
 10
172.000000
 20
24.019052
 42
-0.312780
  0
VERTEX
  8
0
 10
172.264420
 20
24.400392
 42
-0.035917
  0
VERTEX
  8
0
 10
173.321875
 20
24.711847
 42
-0.033131
  0
VERTEX
  8
0
 10
174.775215
 20
24.929110
 42
-0.020542
  0
VERTEX
  8
0
 10
176.500000
 20
25.000000
 42
0.014594
  0
VERTEX
  8
0
 10
178.898886
 20
25.070034
 42
0.082871
  0
VERTEX
  8
0
 10
180.140248
 20
25.352501
 42
0.174163
  0
VERTEX
  8
0
 10
180.767296
 20
25.918152
 42
0.123615
  0
VERTEX
  8
0
 10
181.000000
 20
26.845012
 42
0.131807
  0
VERTEX
  8
0
 10
180.546637
 20
28.534928
 42
0.069552
  0
VERTEX
  8
0
 10
179.200149
 20
30.258837
 42
0.069082
  0
VERTEX
  8
0
 10
177.418172
 20
31.560507
 42
0.123861
  0
VERTEX
  8
0
 10
175.671259
 20
32.000000
 42
0.088672
  0
VERTEX
  8
0
 10
174.889308
 20
31.860226
 42
0.036280
  0
VERTEX
  8
0
 10
173.903432
 20
31.412500
 42
0.034452
  0
VERTEX
  8
0
 10
172.888653
 20
30.765349
 42
0.037223
  0
SEQEND
  0
POLYLINE
  8
0
 66
1
 70
1
  0
VERTEX
  8
0
 10
178.755005
 20
28.250000
 42
-0.237479
  0
VERTEX
  8
0
 10
178.674024
 20
27.707487
 42
-0.149504
  0
VERTEX
  8
0
 10
178.156885
 20
27.306556
 42
-0.069968
  0
VERTEX
  8
0
 10
177.107343
 20
27.068583
 42
-0.020818
  0
VERTEX
  8
0
 10
175.460889
 20
27.000000
 42
-0.009625
  0
VERTEX
  8
0
 10
173.342362
 20
27.040787
 42
-0.133407
  0
VERTEX
  8
0
 10
172.618232
 20
27.267764
 42
-0.382732
  0
VERTEX
  8
0
 10
172.495344
 20
27.710525
 42
-0.058165
  0
VERTEX
  8
0
 10
173.040050
 20
28.548257
 42
-0.134530
  0
VERTEX
  8
0
 10
174.394795
 20
29.496359
 42
-0.099149
  0
VERTEX
  8
0
 10
176.215333
 20
29.763152
 42
-0.109073
  0
VERTEX
  8
0
 10
177.861325
 20
29.308623
 42
-0.193860
  0
SEQEND
  0
POLYLINE
  8
0
 66
1
 70
1
  0
VERTEX
  8
0
 10
184.477578
 20
26.250000
 42
0.015948
  0
VERTEX
  8
0
 10
185.456884
 20
24.046931
 42
0.023593
  0
VERTEX
  8
0
 10
186.465481
 20
22.189062
 42
0.020533
  0
VERTEX
  8
0
 10
187.394088
 20
20.788866
 42
0.240518
  0
VERTEX
  8
0
 10
187.959857
 20
20.500000
 42
0.241230
  0
VERTEX
  8
0
 10
188.526116
 20
20.790078
 42
0.020270
  0
VERTEX
  8
0
 10
189.459904
 20
22.204734
 42
0.023413
  0
VERTEX
  8
0
 10
190.474740
 20
24.079822
 42
0.015807
  0
VERTEX
  8
0
 10
191.461441
 20
26.303350
 42
0.012619
  0
VERTEX
  8
0
 10
192.292720
 20
28.506478
 42
0.024951
  0
VERTEX
  8
0
 10
192.819287
 20
30.299313
 42
0.031440
  0
VERTEX
  8
0
 10
193.036567
 20
31.543283
 42
0.547150
  0
VERTEX
  8
0
 10
192.771737
 20
31.757246
 42
0.161092
  0
VERTEX
  8
0
 10
192.266273
 20
31.379970
 42
0.019715
  0
VERTEX
  8
0
 10
191.510067
 20
30.202112
 42
0.021716
  0
VERTEX
  8
0
 10
190.705026
 20
28.685129
 42
0.016333
  0
VERTEX
  8
0
 10
189.948858
 20
26.953896
 42
0.000000
  0
VERTEX
  8
0
 10
188.174340
 20
22.500000
 42
0.000000
  0
VERTEX
  8
0
 10
186.587170
 20
26.217881
 42
-0.009176
  0
VERTEX
  8
0
 10
185.979462
 20
27.717017
 42
-0.011076
  0
VERTEX
  8
0
 10
185.466231
 20
29.146820
 42
-0.009803
  0
VERTEX
  8
0
 10
185.086294
 20
30.362677
 42
-0.070935
  0
VERTEX
  8
0
 10
185.000000
 20
30.967881
 42
0.137471
  0
VERTEX
  8
0
 10
184.889702
 20
31.361468
 42
0.100196
  0
VERTEX
  8
0
 10
184.579677
 20
31.696815
 42
0.086114
  0
VERTEX
  8
0
 10
184.115964
 20
31.922580
 42
0.070436
  0
VERTEX
  8
0
 10
183.569112
 20
32.000000
 42
0.287628
  0
VERTEX
  8
0
 10
183.022441
 20
31.657161
 42
0.152983
  0
VERTEX
  8
0
 10
182.901023
 20
30.836655
 42
0.049357
  0
VERTEX
  8
0
 10
183.318918
 20
29.235705
 42
0.008107
  0
SEQEND
  0
POLYLINE
  8
0
 66
1
 70
1
  0
VERTEX
  8
0
 10
196.000000
 20
26.000000
 42
0.015416
  0
VERTEX
  8
0
 10
196.071434
 20
23.683687
 42
0.025878
  0
VERTEX
  8
0
 10
196.291667
 20
21.750000
 42
0.024068
  0
VERTEX
  8
0
 10
196.604992
 20
20.303225
 42
0.339565
  0
VERTEX
  8
0
 10
197.000000
 20
20.000000
 42
0.339565
  0
VERTEX
  8
0
 10
197.395008
 20
20.303225
 42
0.024068
  0
VERTEX
  8
0
 10
197.708333
 20
21.750000
 42
0.025878
  0
VERTEX
  8
0
 10
197.928566
 20
23.683687
 42
0.015416
  0
VERTEX
  8
0
 10
198.000000
 20
26.000000
 42
0.015416
  0
VERTEX
  8
0
 10
197.928566
 20
28.316313
 42
0.025878
  0
VERTEX
  8
0
 10
197.708333
 20
30.250000
 42
0.024068
  0
VERTEX
  8
0
 10
197.395008
 20
31.696775
 42
0.339565
  0
VERTEX
  8
0
 10
197.000000
 20
32.000000
 42
0.339565
  0
VERTEX
  8
0
 10
196.604992
 20
31.696775
 42
0.024068
  0
VERTEX
  8
0
 10
196.291667
 20
30.250000
 42
0.025878
  0
VERTEX
  8
0
 10
196.071434
 20
28.316313
 42
0.015416
  0
SEQEND
  0
POLYLINE
  8
0
 66
1
 70
1
  0
VERTEX
  8
0
 10
203.000000
 20
30.000000
 42
0.039392
  0
VERTEX
  8
0
 10
202.234646
 20
29.103516
 42
0.035260
  0
VERTEX
  8
0
 10
201.587500
 20
28.065361
 42
0.037019
  0
VERTEX
  8
0
 10
201.140902
 20
27.046001
 42
0.084934
  0
VERTEX
  8
0
 10
201.000000
 20
26.222506
 42
0.105706
  0
VERTEX
  8
0
 10
201.457310
 20
24.083552
 42
0.075738
  0
VERTEX
  8
0
 10
202.786098
 20
22.021578
 42
0.078518
  0
VERTEX
  8
0
 10
204.607821
 20
20.516668
 42
0.134231
  0
VERTEX
  8
0
 10
206.497687
 20
20.000000
 42
0.052754
  0
VERTEX
  8
0
 10
208.534954
 20
20.215547
 42
0.250160
  0
VERTEX
  8
0
 10
209.401618
 20
20.947128
 42
0.407962
  0
VERTEX
  8
0
 10
209.075866
 20
21.727940
 42
0.070646
  0
VERTEX
  8
0
 10
207.367816
 20
22.181942
 42
-0.089333
  0
VERTEX
  8
0
 10
205.164761
 20
22.856023
 42
-0.126037
  0
VERTEX
  8
0
 10
203.636124
 20
24.212714
 42
-0.148498
  0
VERTEX
  8
0
 10
203.096521
 20
25.961265
 42
-0.141918
  0
VERTEX
  8
0
 10
203.605977
 20
27.750000
 42
-0.082362
  0
VERTEX
  8
0
 10
204.219017
 20
28.443668
 42
-0.045036
  0
VERTEX
  8
0
 10
205.163013
 20
29.079367
 42
-0.043314
  0
VERTEX
  8
0
 10
206.266726
 20
29.567067
 42
-0.052740
  0
VERTEX
  8
0
 10
207.367816
 20
29.818058
 42
0.035623
  0
VERTEX
  8
0
 10
208.349222
 20
30.006754
 42
0.069566
  0
VERTEX
  8
0
 10
209.081553
 20
30.316445
 42
0.120612
  0
VERTEX
  8
0
 10
209.458296
 20
30.688435
 42
0.283568
  0
VERTEX
  8
0
 10
209.457938
 20
31.068058
 42
0.198199
  0
VERTEX
  8
0
 10
208.369398
 20
31.854907
 42
0.099949
  0
VERTEX
  8
0
 10
206.647309
 20
31.915780
 42
0.081211
  0
VERTEX
  8
0
 10
204.701157
 20
31.257927
 42
0.074478
  0
SEQEND
  0
POLYLINE
  8
0
 66
1
 70
1
  0
VERTEX
  8
0
 10
214.000000
 20
30.000000
 42
0.144193
  0
VERTEX
  8
0
 10
212.291934
 20
26.865866
 42
0.157066
  0
VERTEX
  8
0
 10
212.634056
 20
23.421764
 42
0.162557
  0
VERTEX
  8
0
 10
214.898714
 20
20.905869
 42
0.154921
  0
VERTEX
  8
0
 10
218.269052
 20
20.193806
 42
0.036228
  0
VERTEX
  8
0
 10
219.476886
 20
20.403142
 42
0.043987
  0
VERTEX
  8
0
 10
220.562735
 20
20.777443
 42
0.049749
  0
VERTEX
  8
0
 10
221.386817
 20
21.248500
 42
0.160071
  0
VERTEX
  8
0
 10
221.756548
 20
21.750680
 42
0.093254
  0
VERTEX
  8
0
 10
221.820371
 20
22.234244
 42
0.259599
  0
VERTEX
  8
0
 10
221.643873
 20
22.514063
 42
0.173619
  0
VERTEX
  8
0
 10
221.234596
 20
22.578547
 42
0.044746
  0
VERTEX
  8
0
 10
220.581324
 20
22.392833
 42
-0.102808
  0
VERTEX
  8
0
 10
218.810637
 20
22.104334
 42
-0.049756
  0
VERTEX
  8
0
 10
216.528337
 20
22.432513
 42
-0.049829
  0
VERTEX
  8
0
 10
214.561862
 20
23.132157
 42
-0.290100
  0
VERTEX
  8
0
 10
214.000000
 20
24.019052
 42
-0.312780
  0
VERTEX
  8
0
 10
214.264420
 20
24.400392
 42
-0.035917
  0
VERTEX
  8
0
 10
215.321875
 20
24.711847
 42
-0.033131
  0
VERTEX
  8
0
 10
216.775215
 20
24.929110
 42
-0.020542
  0
VERTEX
  8
0
 10
218.500000
 20
25.000000
 42
0.014237
  0
VERTEX
  8
0
 10
220.943621
 20
25.069591
 42
0.087207
  0
VERTEX
  8
0
 10
222.166667
 20
25.357143
 42
0.182187
  0
VERTEX
  8
0
 10
222.777110
 20
25.943544
 42
0.111727
  0
VERTEX
  8
0
 10
223.000000
 20
26.928571
 42
0.114032
  0
VERTEX
  8
0
 10
222.585739
 20
28.721374
 42
0.082998
  0
VERTEX
  8
0
 10
221.392941
 20
30.392941
 42
0.082998
  0
VERTEX
  8
0
 10
219.721374
 20
31.585739
 42
0.114032
  0
VERTEX
  8
0
 10
217.928571
 20
32.000000
 42
0.080080
  0
VERTEX
  8
0
 10
217.046253
 20
31.857776
 42
0.037832
  0
VERTEX
  8
0
 10
215.979018
 20
31.412500
 42
0.036240
  0
VERTEX
  8
0
 10
214.907595
 20
30.765379
 42
0.042427
  0
SEQEND
  0
POLYLINE
  8
0
 66
1
 70
1
  0
VERTEX
  8
0
 10
220.755005
 20
28.250000
 42
-0.237479
  0
VERTEX
  8
0
 10
220.674024
 20
27.707487
 42
-0.149504
  0
VERTEX
  8
0
 10
220.156885
 20
27.306556
 42
-0.069968
  0
VERTEX
  8
0
 10
219.107343
 20
27.068583
 42
-0.020818
  0
VERTEX
  8
0
 10
217.460889
 20
27.000000
 42
-0.009625
  0
VERTEX
  8
0
 10
215.342362
 20
27.040787
 42
-0.133407
  0
VERTEX
  8
0
 10
214.618232
 20
27.267764
 42
-0.382732
  0
VERTEX
  8
0
 10
214.495344
 20
27.710525
 42
-0.058165
  0
VERTEX
  8
0
 10
215.040050
 20
28.548257
 42
-0.134530
  0
VERTEX
  8
0
 10
216.394795
 20
29.496359
 42
-0.099149
  0
VERTEX
  8
0
 10
218.215333
 20
29.763152
 42
-0.109073
  0
VERTEX
  8
0
 10
219.861325
 20
29.308623
 42
-0.193860
  0
SEQEND
  0
POLYLINE
  8
0
 66
1
 70
1
  0
VERTEX
  8
0
 10
238.627691
 20
26.307184
 42
-0.012827
  0
VERTEX
  8
0
 10
239.868321
 20
23.295328
 42
-0.045981
  0
VERTEX
  8
0
 10
240.429135
 20
21.293788
 42
-0.071983
  0
VERTEX
  8
0
 10
240.487325
 20
19.745688
 42
-0.080518
  0
VERTEX
  8
0
 10
240.094101
 20
18.307184
 42
-0.034111
  0
VERTEX
  8
0
 10
239.616572
 20
17.424115
 42
-0.042021
  0
VERTEX
  8
0
 10
239.051627
 20
16.677735
 42
-0.047204
  0
VERTEX
  8
0
 10
238.486115
 20
16.156628
 42
-0.164002
  0
VERTEX
  8
0
 10
238.021439
 20
16.000000
 42
0.096892
  0
VERTEX
  8
0
 10
237.631586
 20
15.923737
 42
0.097414
  0
VERTEX
  8
0
 10
237.300048
 20
15.706250
 42
0.098434
  0
VERTEX
  8
0
 10
237.078058
 20
15.381607
 42
0.101227
  0
VERTEX
  8
0
 10
237.000000
 20
15.000000
 42
0.152059
  0
VERTEX
  8
0
 10
237.118727
 20
14.618629
 42
0.098266
  0
VERTEX
  8
0
 10
237.452911
 20
14.293750
 42
0.081094
  0
VERTEX
  8
0
 10
237.952311
 20
14.074587
 42
0.063011
  0
VERTEX
  8
0
 10
238.541824
 20
14.000000
 42
0.215494
  0
VERTEX
  8
0
 10
239.353069
 20
14.366664
 42
0.031023
  0
VERTEX
  8
0
 10
240.495736
 20
15.839651
 42
0.028190
  0
VERTEX
  8
0
 10
241.781392
 20
17.977728
 42
0.015040
  0
VERTEX
  8
0
 10
243.137494
 20
20.750000
 42
0.002111
  0
VERTEX
  8
0
 10
246.169670
 20
27.528162
 42
0.023342
  0
VERTEX
  8
0
 10
247.243106
 20
30.297810
 42
0.115792
  0
VERTEX
  8
0
 10
247.350276
 20
31.452916
 42
0.469103
  0
VERTEX
  8
0
 10
246.829146
 20
31.776382
 42
0.154413
  0
VERTEX
  8
0
 10
246.277947
 20
31.376050
 42
0.025448
  0
VERTEX
  8
0
 10
245.542207
 20
30.266075
 42
0.025904
  0
VERTEX
  8
0
 10
244.786472
 20
28.823856
 42
0.020313
  0
VERTEX
  8
0
 10
244.114553
 20
27.190402
 42
-0.013463
  0
VERTEX
  8
0
 10
243.479577
 20
25.584591
 42
-0.020503
  0
VERTEX
  8
0
 10
242.834878
 20
24.230931
 42
-0.016013
  0
VERTEX
  8
0
 10
242.242066
 20
23.189538
 42
-0.261014
  0
VERTEX
  8
0
 10
241.903722
 20
23.000000
 42
-0.279042
  0
VERTEX
  8
0
 10
241.575538
 20
23.198620
 42
-0.015483
  0
VERTEX
  8
0
 10
241.031072
 20
24.321875
 42
-0.020248
  0
VERTEX
  8
0
 10
240.450699
 20
25.775384
 42
-0.013075
  0
VERTEX
  8
0
 10
239.892061
 20
27.500000
 42
0.023506
  0
VERTEX
  8
0
 10
239.293730
 20
29.223687
 42
0.033847
  0
VERTEX
  8
0
 10
238.593343
 20
30.678125
 42
0.035979
  0
VERTEX
  8
0
 10
237.893119
 20
31.727615
 42
0.231639
  0
VERTEX
  8
0
 10
237.336714
 20
32.000000
 42
0.397226
  0
VERTEX
  8
0
 10
236.958233
 20
31.642983
 42
0.070453
  0
VERTEX
  8
0
 10
237.046220
 20
30.576660
 42
0.036864
  0
VERTEX
  8
0
 10
237.578935
 20
28.834167
 42
0.011500
  0
SEQEND
  0
POLYLINE
  8
0
 66
1
 70
1
  0
VERTEX
  8
0
 10
250.200000
 20
30.800000
 42
0.093518
  0
VERTEX
  8
0
 10
249.227250
 20
29.374787
 42
0.187091
  0
VERTEX
  8
0
 10
249.170166
 20
28.032615
 42
0.143572
  0
VERTEX
  8
0
 10
250.071499
 20
26.750106
 42
0.048978
  0
VERTEX
  8
0
 10
252.000000
 20
25.500000
 42
-0.037211
  0
VERTEX
  8
0
 10
254.324098
 20
24.069844
 42
-0.242855
  0
VERTEX
  8
0
 10
254.923663
 20
22.884491
 42
-0.388889
  0
VERTEX
  8
0
 10
254.231895
 20
22.141903
 42
-0.056249
  0
VERTEX
  8
0
 10
251.973081
 20
22.217259
 42
0.024759
  0
VERTEX
  8
0
 10
250.717933
 20
22.338404
 42
0.070264
  0
VERTEX
  8
0
 10
249.844557
 20
22.256430
 42
0.149652
  0
VERTEX
  8
0
 10
249.389573
 20
21.989248
 42
0.271461
  0
VERTEX
  8
0
 10
249.301409
 20
21.580758
 42
0.218392
  0
VERTEX
  8
0
 10
250.170613
 20
20.643246
 42
0.077103
  0
VERTEX
  8
0
 10
251.993907
 20
20.198493
 42
0.071630
  0
VERTEX
  8
0
 10
254.031968
 20
20.316140
 42
0.123636
  0
VERTEX
  8
0
 10
255.555042
 20
21.045681
 42
0.097047
  0
VERTEX
  8
0
 10
256.700422
 20
22.448865
 42
0.195831
  0
VERTEX
  8
0
 10
256.846593
 20
23.844848
 42
0.150940
  0
VERTEX
  8
0
 10
255.948080
 20
25.210131
 42
0.053017
  0
VERTEX
  8
0
 10
253.967304
 20
26.516908
 42
-0.050683
  0
VERTEX
  8
0
 10
252.020871
 20
27.788063
 42
-0.275596
  0
VERTEX
  8
0
 10
251.602957
 20
28.921860
 42
-0.299452
  0
VERTEX
  8
0
 10
252.403261
 20
29.752826
 42
-0.055629
  0
VERTEX
  8
0
 10
254.618034
 20
30.000000
 42
0.036850
  0
VERTEX
  8
0
 10
255.553315
 20
30.069023
 42
0.085479
  0
VERTEX
  8
0
 10
256.219427
 20
30.288197
 42
0.167127
  0
VERTEX
  8
0
 10
256.525676
 20
30.616153
 42
0.248314
  0
VERTEX
  8
0
 10
256.500000
 20
31.000000
 42
0.195624
  0
VERTEX
  8
0
 10
255.454655
 20
31.763544
 42
0.069165
  0
VERTEX
  8
0
 10
253.575490
 20
31.964197
 42
0.066271
  0
VERTEX
  8
0
 10
251.591181
 20
31.635649
 42
0.122854
  0
SEQEND
  0
POLYLINE
  8
0
 66
1
 70
1
  0
VERTEX
  8
0
 10
269.000000
 20
30.000000
 42
0.144193
  0
VERTEX
  8
0
 10
267.291934
 20
26.865866
 42
0.157066
  0
VERTEX
  8
0
 10
267.634056
 20
23.421764
 42
0.162557
  0
VERTEX
  8
0
 10
269.898714
 20
20.905869
 42
0.154921
  0
VERTEX
  8
0
 10
273.269052
 20
20.193806
 42
0.031356
  0
VERTEX
  8
0
 10
274.472913
 20
20.390406
 42
0.039921
  0
VERTEX
  8
0
 10
275.546097
 20
20.727528
 42
0.044530
  0
VERTEX
  8
0
 10
276.358864
 20
21.143635
 42
0.174785
  0
VERTEX
  8
0
 10
276.699908
 20
21.580758
 42
0.259534
  0
VERTEX
  8
0
 10
276.621369
 20
21.986104
 42
0.153594
  0
VERTEX
  8
0
 10
276.194236
 20
22.257924
 42
0.074519
  0
VERTEX
  8
0
 10
275.377157
 20
22.350793
 42
0.027542
  0
VERTEX
  8
0
 10
274.220037
 20
22.245602
 42
-0.045708
  0
VERTEX
  8
0
 10
272.942897
 20
22.176087
 42
-0.059493
  0
VERTEX
  8
0
 10
271.786842
 20
22.357696
 42
-0.066506
  0
VERTEX
  8
0
 10
270.812528
 20
22.778250
 42
-0.084645
  0
VERTEX
  8
0
 10
270.070673
 20
23.414844
 42
-0.077940
  0
VERTEX
  8
0
 10
269.563636
 20
24.266185
 42
-0.395186
  0
VERTEX
  8
0
 10
269.746232
 20
24.735419
 42
-0.104848
  0
VERTEX
  8
0
 10
270.674303
 20
24.960627
 42
-0.007282
  0
VERTEX
  8
0
 10
273.377555
 20
25.000000
 42
0.013920
  0
VERTEX
  8
0
 10
275.854285
 20
25.068965
 42
0.081200
  0
VERTEX
  8
0
 10
277.123657
 20
25.349786
 42
0.174296
  0
VERTEX
  8
0
 10
277.762253
 20
25.915428
 42
0.125853
  0
VERTEX
  8
0
 10
278.000000
 20
26.845012
 42
0.131807
  0
VERTEX
  8
0
 10
277.546637
 20
28.534928
 42
0.069552
  0
VERTEX
  8
0
 10
276.200149
 20
30.258837
 42
0.069082
  0
VERTEX
  8
0
 10
274.418172
 20
31.560507
 42
0.123861
  0
VERTEX
  8
0
 10
272.671259
 20
32.000000
 42
0.088672
  0
VERTEX
  8
0
 10
271.889308
 20
31.860226
 42
0.036280
  0
VERTEX
  8
0
 10
270.903432
 20
31.412500
 42
0.034452
  0
VERTEX
  8
0
 10
269.888653
 20
30.765349
 42
0.037223
  0
SEQEND
  0
POLYLINE
  8
0
 66
1
 70
1
  0
VERTEX
  8
0
 10
275.755005
 20
28.250000
 42
-0.237479
  0
VERTEX
  8
0
 10
275.674024
 20
27.707487
 42
-0.149504
  0
VERTEX
  8
0
 10
275.156885
 20
27.306556
 42
-0.069968
  0
VERTEX
  8
0
 10
274.107343
 20
27.068583
 42
-0.020818
  0
VERTEX
  8
0
 10
272.460889
 20
27.000000
 42
-0.009625
  0
VERTEX
  8
0
 10
270.342362
 20
27.040787
 42
-0.133407
  0
VERTEX
  8
0
 10
269.618232
 20
27.267764
 42
-0.382732
  0
VERTEX
  8
0
 10
269.495344
 20
27.710525
 42
-0.058165
  0
VERTEX
  8
0
 10
270.040050
 20
28.548257
 42
-0.134530
  0
VERTEX
  8
0
 10
271.394795
 20
29.496359
 42
-0.099149
  0
VERTEX
  8
0
 10
273.215333
 20
29.763152
 42
-0.109073
  0
VERTEX
  8
0
 10
274.861325
 20
29.308623
 42
-0.193860
  0
SEQEND
  0
POLYLINE
  8
0
 66
1
 70
1
  0
VERTEX
  8
0
 10
281.000000
 20
26.000000
 42
0.015593
  0
VERTEX
  8
0
 10
281.143133
 20
21.411535
 42
0.252071
  0
VERTEX
  8
0
 10
281.932572
 20
20.141725
 42
0.530566
  0
VERTEX
  8
0
 10
282.765028
 20
20.548869
 42
0.019031
  0
VERTEX
  8
0
 10
283.195209
 20
24.741006
 42
-0.017096
  0
VERTEX
  8
0
 10
283.432873
 20
27.148760
 42
-0.068181
  0
VERTEX
  8
0
 10
283.825783
 20
28.575494
 42
-0.120706
  0
VERTEX
  8
0
 10
284.450413
 20
29.405510
 42
-0.125039
  0
VERTEX
  8
0
 10
285.380173
 20
29.839399
 42
-0.143312
  0
VERTEX
  8
0
 10
286.954096
 20
29.686496
 42
-0.165178
  0
VERTEX
  8
0
 10
288.094310
 20
28.708571
 42
-0.099715
  0
VERTEX
  8
0
 10
288.771604
 20
26.767343
 42
-0.033222
  0
VERTEX
  8
0
 10
288.984687
 20
23.750000
 42
0.022070
  0
VERTEX
  8
0
 10
289.054039
 20
22.312781
 42
0.035369
  0
VERTEX
  8
0
 10
289.253309
 20
21.101562
 42
0.039773
  0
VERTEX
  8
0
 10
289.536262
 20
20.228084
 42
0.303326
  0
VERTEX
  8
0
 10
289.877640
 20
20.000000
 42
0.278793
  0
VERTEX
  8
0
 10
290.198319
 20
20.193875
 42
0.063911
  0
VERTEX
  8
0
 10
290.428285
 20
20.813097
 42
0.048355
  0
VERTEX
  8
0
 10
290.546380
 20
21.707308
 42
0.029899
  0
VERTEX
  8
0
 10
290.519742
 20
22.767991
 42
-0.050867
  0
VERTEX
  8
0
 10
290.567404
 20
25.612052
 42
-0.081805
  0
VERTEX
  8
0
 10
291.239771
 20
27.935848
 42
-0.110434
  0
VERTEX
  8
0
 10
292.426478
 20
29.449622
 42
-0.173188
  0
VERTEX
  8
0
 10
293.967776
 20
30.000000
 42
-0.106361
  0
VERTEX
  8
0
 10
295.036890
 20
29.769973
 42
-0.192552
  0
VERTEX
  8
0
 10
295.648389
 20
29.134910
 42
-0.085270
  0
VERTEX
  8
0
 10
295.935258
 20
27.827041
 42
-0.011449
  0
VERTEX
  8
0
 10
296.000000
 20
25.000000
 42
0.018830
  0
VERTEX
  8
0
 10
296.072205
 20
23.083446
 42
0.030530
  0
VERTEX
  8
0
 10
296.293750
 20
21.468750
 42
0.031449
  0
VERTEX
  8
0
 10
296.610183
 20
20.280551
 42
0.322437
  0
VERTEX
  8
0
 10
297.000000
 20
20.000000
 42
0.331893
  0
VERTEX
  8
0
 10
297.390988
 20
20.291660
 42
0.027135
  0
VERTEX
  8
0
 10
297.706250
 20
21.610028
 42
0.027961
  0
VERTEX
  8
0
 10
297.927852
 20
23.379916
 42
0.017165
  0
VERTEX
  8
0
 10
298.000000
 20
25.480948
 42
0.010818
  0
VERTEX
  8
0
 10
297.928996
 20
28.762247
 42
0.088821
  0
VERTEX
  8
0
 10
297.603171
 20
30.216248
 42
0.168066
  0
VERTEX
  8
0
 10
296.866303
 20
31.038574
 42
0.065400
  0
VERTEX
  8
0
 10
295.426784
 20
31.607732
 42
0.043900
  0
VERTEX
  8
0
 10
294.364650
 20
31.777136
 42
0.045375
  0
VERTEX
  8
0
 10
293.301173
 20
31.755577
 42
0.049688
  0
VERTEX
  8
0
 10
292.389589
 20
31.561039
 42
0.119527
  0
VERTEX
  8
0
 10
291.804115
 20
31.204115
 42
-0.102416
  0
VERTEX
  8
0
 10
291.187119
 20
30.798751
 42
-0.096073
  0
VERTEX
  8
0
 10
290.445390
 20
30.659482
 42
-0.072512
  0
VERTEX
  8
0
 10
289.535221
 20
30.797718
 42
-0.033019
  0
VERTEX
  8
0
 10
288.406945
 20
31.224353
 42
0.037175
  0
VERTEX
  8
0
 10
287.205411
 20
31.667322
 42
0.082781
  0
VERTEX
  8
0
 10
286.239854
 20
31.777589
 42
0.096238
  0
VERTEX
  8
0
 10
285.384268
 20
31.565160
 42
0.064458
  0
VERTEX
  8
0
 10
284.529614
 20
31.024577
 42
-0.025345
  0
VERTEX
  8
0
 10
283.832462
 20
30.503297
 42
-0.124524
  0
VERTEX
  8
0
 10
283.373434
 20
30.339063
 42
-0.294792
  0
VERTEX
  8
0
 10
283.106489
 20
30.477197
 42
-0.130720
  0
VERTEX
  8
0
 10
283.000000
 20
30.877555
 42
0.087854
  0
VERTEX
  8
0
 10
282.924111
 20
31.306129
 42
0.094595
  0
VERTEX
  8
0
 10
282.706250
 20
31.670282
 42
0.100072
  0
VERTEX
  8
0
 10
282.381483
 20
31.913879
 42
0.111474
  0
VERTEX
  8
0
 10
282.000000
 20
32.000000
 42
0.339565
  0
VERTEX
  8
0
 10
281.604992
 20
31.696775
 42
0.024068
  0
VERTEX
  8
0
 10
281.291667
 20
30.250000
 42
0.025878
  0
VERTEX
  8
0
 10
281.071434
 20
28.316313
 42
0.015416
  0
SEQEND
  0
POLYLINE
  8
0
 66
1
 70
1
  0
VERTEX
  8
0
 10
312.200000
 20
30.800000
 42
0.093518
  0
VERTEX
  8
0
 10
311.227250
 20
29.374787
 42
0.187091
  0
VERTEX
  8
0
 10
311.170166
 20
28.032615
 42
0.143572
  0
VERTEX
  8
0
 10
312.071499
 20
26.750106
 42
0.048978
  0
VERTEX
  8
0
 10
314.000000
 20
25.500000
 42
-0.037211
  0
VERTEX
  8
0
 10
316.324098
 20
24.069844
 42
-0.242855
  0
VERTEX
  8
0
 10
316.923663
 20
22.884491
 42
-0.388889
  0
VERTEX
  8
0
 10
316.231895
 20
22.141903
 42
-0.056249
  0
VERTEX
  8
0
 10
313.973081
 20
22.217259
 42
0.024759
  0
VERTEX
  8
0
 10
312.717933
 20
22.338404
 42
0.070264
  0
VERTEX
  8
0
 10
311.844557
 20
22.256430
 42
0.149652
  0
VERTEX
  8
0
 10
311.389573
 20
21.989248
 42
0.271461
  0
VERTEX
  8
0
 10
311.301409
 20
21.580758
 42
0.218392
  0
VERTEX
  8
0
 10
312.170613
 20
20.643246
 42
0.077103
  0
VERTEX
  8
0
 10
313.993907
 20
20.198493
 42
0.071630
  0
VERTEX
  8
0
 10
316.031968
 20
20.316140
 42
0.123636
  0
VERTEX
  8
0
 10
317.555042
 20
21.045681
 42
0.097047
  0
VERTEX
  8
0
 10
318.700422
 20
22.448865
 42
0.195831
  0
VERTEX
  8
0
 10
318.846593
 20
23.844848
 42
0.150940
  0
VERTEX
  8
0
 10
317.948080
 20
25.210131
 42
0.053017
  0
VERTEX
  8
0
 10
315.967304
 20
26.516908
 42
-0.052044
  0
VERTEX
  8
0
 10
314.116713
 20
27.732648
 42
-0.232004
  0
VERTEX
  8
0
 10
313.590794
 20
28.880546
 42
-0.320583
  0
VERTEX
  8
0
 10
314.224233
 20
29.719372
 42
-0.076032
  0
VERTEX
  8
0
 10
316.059017
 20
30.000000
 42
0.049547
  0
VERTEX
  8
0
 10
316.801778
 20
30.073784
 42
0.069539
  0
VERTEX
  8
0
 10
317.429836
 20
30.293750
 42
0.089706
  0
VERTEX
  8
0
 10
317.852535
 20
30.618213
 42
0.186414
  0
VERTEX
  8
0
 10
318.000000
 20
31.000000
 42
0.339437
  0
VERTEX
  8
0
 10
317.410983
 20
31.767670
 42
0.074218
  0
VERTEX
  8
0
 10
315.644095
 20
31.969428
 42
0.063714
  0
VERTEX
  8
0
 10
313.604788
 20
31.636714
 42
0.124745
  0
SEQEND
  0
POLYLINE
  8
0
 66
1
 70
1
  0
VERTEX
  8
0
 10
323.250000
 20
31.337719
 42
0.079113
  0
VERTEX
  8
0
 10
322.123642
 20
30.660364
 42
0.445557
  0
VERTEX
  8
0
 10
322.103045
 20
30.039648
 42
0.190121
  0
VERTEX
  8
0
 10
323.053919
 20
29.648894
 42
0.039990
  0
VERTEX
  8
0
 10
324.881578
 20
29.769312
 42
-0.046494
  0
VERTEX
  8
0
 10
327.385969
 20
29.901685
 42
-0.319226
  0
VERTEX
  8
0
 10
328.307960
 20
29.188902
 42
-0.387698
  0
VERTEX
  8
0
 10
327.862543
 20
28.255007
 42
-0.050193
  0
VERTEX
  8
0
 10
325.547612
 20
27.574910
 42
0.038363
  0
VERTEX
  8
0
 10
324.040130
 20
27.170440
 42
0.059874
  0
VERTEX
  8
0
 10
322.836202
 20
26.576310
 42
0.071918
  0
VERTEX
  8
0
 10
321.972404
 20
25.816218
 42
0.099894
  0
VERTEX
  8
0
 10
321.473743
 20
24.917273
 42
0.169124
  0
VERTEX
  8
0
 10
321.542097
 20
22.454407
 42
0.170814
  0
VERTEX
  8
0
 10
323.125759
 20
20.578740
 42
0.167958
  0
VERTEX
  8
0
 10
325.558188
 20
20.089617
 42
0.164209
  0
VERTEX
  8
0
 10
327.800000
 20
21.200000
 42
-0.019206
  0
VERTEX
  8
0
 10
328.421132
 20
21.775162
 42
-0.191730
  0
VERTEX
  8
0
 10
328.750000
 20
21.887705
 42
-0.346165
  0
VERTEX
  8
0
 10
328.945434
 20
21.717794
 42
-0.047194
  0
VERTEX
  8
0
 10
329.000000
 20
21.140983
 42
0.086996
  0
VERTEX
  8
0
 10
329.076053
 20
20.707186
 42
0.165861
  0
VERTEX
  8
0
 10
329.294997
 20
20.434120
 42
0.178979
  0
VERTEX
  8
0
 10
329.621514
 20
20.363835
 42
0.103212
  0
VERTEX
  8
0
 10
330.004244
 20
20.502623
 42
0.254515
  0
VERTEX
  8
0
 10
330.620262
 20
21.581582
 42
0.016807
  0
VERTEX
  8
0
 10
330.571057
 20
25.285993
 42
0.022408
  0
VERTEX
  8
0
 10
330.231385
 20
28.979750
 42
0.104646
  0
VERTEX
  8
0
 10
329.512589
 20
30.979630
 42
0.191048
  0
VERTEX
  8
0
 10
328.660728
 20
31.613449
 42
0.051298
  0
VERTEX
  8
0
 10
326.963676
 20
31.886661
 42
0.048984
  0
VERTEX
  8
0
 10
325.005490
 20
31.806776
 42
0.061293
  0
SEQEND
  0
POLYLINE
  8
0
 66
1
 70
1
  0
VERTEX
  8
0
 10
328.773814
 20
24.821443
 42
-0.112972
  0
VERTEX
  8
0
 10
327.940685
 20
23.452582
 42
-0.096521
  0
VERTEX
  8
0
 10
326.550419
 20
22.487877
 42
-0.110470
  0
VERTEX
  8
0
 10
325.057740
 20
22.194412
 42
-0.192185
  0
VERTEX
  8
0
 10
323.914656
 20
22.685344
 42
-0.072671
  0
VERTEX
  8
0
 10
323.529203
 20
23.202710
 42
-0.072105
  0
VERTEX
  8
0
 10
323.306621
 20
23.810091
 42
-0.077822
  0
VERTEX
  8
0
 10
323.275327
 20
24.411644
 42
-0.113032
  0
VERTEX
  8
0
 10
323.446149
 20
24.912868
 42
-0.194132
  0
VERTEX
  8
0
 10
324.581545
 20
25.747201
 42
-0.066948
  0
VERTEX
  8
0
 10
326.643016
 20
25.988532
 42
-0.086358
  0
VERTEX
  8
0
 10
328.377181
 20
25.656013
 42
-0.402550
  0
SEQEND
  0
POLYLINE
  8
0
 66
1
 70
1
  0
VERTEX
  8
0
 10
334.000000
 20
26.000000
 42
0.015593
  0
VERTEX
  8
0
 10
334.143133
 20
21.411535
 42
0.252071
  0
VERTEX
  8
0
 10
334.932572
 20
20.141725
 42
0.530566
  0
VERTEX
  8
0
 10
335.765028
 20
20.548869
 42
0.019031
  0
VERTEX
  8
0
 10
336.195209
 20
24.741006
 42
-0.017096
  0
VERTEX
  8
0
 10
336.432873
 20
27.148760
 42
-0.068181
  0
VERTEX
  8
0
 10
336.825783
 20
28.575494
 42
-0.120706
  0
VERTEX
  8
0
 10
337.450413
 20
29.405510
 42
-0.125039
  0
VERTEX
  8
0
 10
338.380173
 20
29.839399
 42
-0.144720
  0
VERTEX
  8
0
 10
339.964119
 20
29.681108
 42
-0.166781
  0
VERTEX
  8
0
 10
341.103313
 20
28.686847
 42
-0.098443
  0
VERTEX
  8
0
 10
341.775230
 20
26.702268
 42
-0.031584
  0
VERTEX
  8
0
 10
341.984687
 20
23.583333
 42
0.009987
  0
VERTEX
  8
0
 10
342.057990
 20
20.514706
 42
0.548877
  0
VERTEX
  8
0
 10
342.474884
 20
20.274357
 42
0.237475
  0
VERTEX
  8
0
 10
342.952662
 20
20.938670
 42
0.007462
  0
VERTEX
  8
0
 10
343.440256
 20
24.342939
 42
-0.018015
  0
VERTEX
  8
0
 10
343.938832
 20
27.367638
 42
-0.092689
  0
VERTEX
  8
0
 10
344.572847
 20
28.935660
 42
-0.161633
  0
VERTEX
  8
0
 10
345.545299
 20
29.723990
 42
-0.090424
  0
VERTEX
  8
0
 10
347.059017
 20
30.000000
 42
-0.118430
  0
VERTEX
  8
0
 10
348.063114
 20
29.758786
 42
-0.184290
  0
VERTEX
  8
0
 10
348.652951
 20
29.105996
 42
-0.080982
  0
VERTEX
  8
0
 10
348.934669
 20
27.775637
 42
-0.011767
  0
VERTEX
  8
0
 10
349.000000
 20
25.000000
 42
0.018886
  0
VERTEX
  8
0
 10
349.073929
 20
23.043489
 42
0.032984
  0
VERTEX
  8
0
 10
349.302613
 20
21.437920
 42
0.037056
  0
VERTEX
  8
0
 10
349.634409
 20
20.290559
 42
0.313509
  0
VERTEX
  8
0
 10
350.052260
 20
20.000000
 42
0.321760
  0
VERTEX
  8
0
 10
350.472409
 20
20.301599
 42
0.045257
  0
VERTEX
  8
0
 10
350.735814
 20
21.401034
 42
0.034756
  0
VERTEX
  8
0
 10
350.858367
 20
23.027371
 42
0.016098
  0
VERTEX
  8
0
 10
350.802260
 20
25.147006
 42
0.043009
  0
VERTEX
  8
0
 10
350.255800
 20
28.899162
 42
0.126938
  0
VERTEX
  8
0
 10
349.054748
 20
31.188743
 42
0.211849
  0
VERTEX
  8
0
 10
347.317339
 20
31.959694
 42
0.140502
  0
VERTEX
  8
0
 10
345.188166
 20
31.349584
 42
-0.053229
  0
VERTEX
  8
0
 10
344.253499
 20
30.895907
 42
-0.079538
  0
VERTEX
  8
0
 10
343.362989
 20
30.727606
 42
-0.080076
  0
VERTEX
  8
0
 10
342.468845
 20
30.846106
 42
-0.054713
  0
VERTEX
  8
0
 10
341.523532
 20
31.246769
 42
0.055095
  0
VERTEX
  8
0
 10
340.576006
 20
31.647517
 42
0.080509
  0
VERTEX
  8
0
 10
339.679315
 20
31.764179
 42
0.079531
  0
VERTEX
  8
0
 10
338.783646
 20
31.591902
 42
0.052422
  0
VERTEX
  8
0
 10
337.838822
 20
31.131416
 42
-0.029687
  0
VERTEX
  8
0
 10
337.065165
 20
30.709879
 42
-0.091152
  0
VERTEX
  8
0
 10
336.490521
 20
30.558407
 42
-0.199982
  0
VERTEX
  8
0
 10
336.145934
 20
30.672151
 42
-0.217646
  0
VERTEX
  8
0
 10
336.000000
 20
30.991526
 42
0.098179
  0
VERTEX
  8
0
 10
335.923689
 20
31.376411
 42
0.097739
  0
VERTEX
  8
0
 10
335.706250
 20
31.703761
 42
0.098144
  0
VERTEX
  8
0
 10
335.381626
 20
31.922980
 42
0.099904
  0
VERTEX
  8
0
 10
335.000000
 20
32.000000
 42
0.339565
  0
VERTEX
  8
0
 10
334.604992
 20
31.696775
 42
0.024068
  0
VERTEX
  8
0
 10
334.291667
 20
30.250000
 42
0.025878
  0
VERTEX
  8
0
 10
334.071434
 20
28.316313
 42
0.015416
  0
SEQEND
  0
POLYLINE
  8
0
 66
1
 70
1
  0
VERTEX
  8
0
 10
355.000000
 20
23.000000
 42
0.009164
  0
VERTEX
  8
0
 10
355.066717
 20
19.360273
 42
0.018502
  0
VERTEX
  8
0
 10
355.277778
 20
16.500000
 42
0.014491
  0
VERTEX
  8
0
 10
355.579235
 20
14.355190
 42
0.365646
  0
VERTEX
  8
0
 10
356.000000
 20
14.000000
 42
0.273429
  0
VERTEX
  8
0
 10
356.385396
 20
14.227787
 42
0.054284
  0
VERTEX
  8
0
 10
356.706250
 20
14.998000
 42
0.043743
  0
VERTEX
  8
0
 10
356.927420
 20
16.095685
 42
0.027856
  0
VERTEX
  8
0
 10
357.000000
 20
17.397448
 42
-0.021687
  0
VERTEX
  8
0
 10
357.088194
 20
19.429806
 42
-0.173803
  0
VERTEX
  8
0
 10
357.473411
 20
20.267752
 42
-0.186881
  0
VERTEX
  8
0
 10
358.287826
 20
20.637547
 42
-0.025758
  0
VERTEX
  8
0
 10
360.183554
 20
20.647448
 42
0.122607
  0
VERTEX
  8
0
 10
362.775359
 20
21.166666
 42
0.128209
  0
VERTEX
  8
0
 10
364.771018
 20
22.836482
 42
0.119447
  0
VERTEX
  8
0
 10
365.788643
 20
25.374942
 42
0.097660
  0
VERTEX
  8
0
 10
365.638533
 20
28.304064
 42
0.128591
  0
VERTEX
  8
0
 10
364.571382
 20
30.249681
 42
0.114029
  0
VERTEX
  8
0
 10
362.643330
 20
31.530194
 42
0.118387
  0
VERTEX
  8
0
 10
360.409312
 20
31.807513
 42
0.146165
  0
VERTEX
  8
0
 10
358.487014
 20
30.989223
 42
-0.024756
  0
VERTEX
  8
0
 10
357.798374
 20
30.473043
 42
-0.130423
  0
VERTEX
  8
0
 10
357.356071
 20
30.319397
 42
-0.302213
  0
VERTEX
  8
0
 10
357.099509
 20
30.463588
 42
-0.118502
  0
VERTEX
  8
0
 10
357.000000
 20
30.877555
 42
0.087854
  0
VERTEX
  8
0
 10
356.924111
 20
31.306129
 42
0.094595
  0
VERTEX
  8
0
 10
356.706250
 20
31.670282
 42
0.100072
  0
VERTEX
  8
0
 10
356.381483
 20
31.913879
 42
0.111474
  0
VERTEX
  8
0
 10
356.000000
 20
32.000000
 42
0.365646
  0
VERTEX
  8
0
 10
355.579235
 20
31.644810
 42
0.014491
  0
VERTEX
  8
0
 10
355.277778
 20
29.500000
 42
0.018502
  0
VERTEX
  8
0
 10
355.066717
 20
26.639727
 42
0.009164
  0
SEQEND
  0
POLYLINE
  8
0
 66
1
 70
1
  0
VERTEX
  8
0
 10
363.500000
 20
26.608986
 42
-0.050506
  0
VERTEX
  8
0
 10
363.380361
 20
25.427604
 42
-0.047466
  0
VERTEX
  8
0
 10
363.025865
 20
24.268131
 42
-0.050943
  0
VERTEX
  8
0
 10
362.504628
 20
23.298802
 42
-0.103587
  0
VERTEX
  8
0
 10
361.885923
 20
22.699839
 42
-0.113794
  0
VERTEX
  8
0
 10
360.092013
 20
22.073058
 42
-0.170425
  0
VERTEX
  8
0
 10
358.490610
 20
22.444782
 42
-0.157781
  0
VERTEX
  8
0
 10
357.389199
 20
23.773529
 42
-0.095070
  0
VERTEX
  8
0
 10
357.000000
 20
25.801949
 42
-0.038030
  0
VERTEX
  8
0
 10
357.173162
 20
28.075332
 42
-0.158664
  0
VERTEX
  8
0
 10
357.783181
 20
29.285968
 42
-0.177880
  0
VERTEX
  8
0
 10
358.940935
 20
29.827153
 42
-0.050363
  0
VERTEX
  8
0
 10
360.962576
 20
29.795910
 42
-0.050053
  0
VERTEX
  8
0
 10
362.260669
 20
29.510921
 42
-0.146597
  0
VERTEX
  8
0
 10
363.004988
 20
28.993735
 42
-0.131708
  0
VERTEX
  8
0
 10
363.387988
 20
28.113758
 42
-0.037168
  0
SEQEND
  0
POLYLINE
  8
0
 66
1
 70
1
  0
VERTEX
  8
0
 10
376.000000
 20
30.000000
 42
0.144193
  0
VERTEX
  8
0
 10
374.291934
 20
26.865866
 42
0.157066
  0
VERTEX
  8
0
 10
374.634056
 20
23.421764
 42
0.162557
  0
VERTEX
  8
0
 10
376.898714
 20
20.905869
 42
0.154921
  0
VERTEX
  8
0
 10
380.269052
 20
20.193806
 42
0.031356
  0
VERTEX
  8
0
 10
381.472913
 20
20.390406
 42
0.039921
  0
VERTEX
  8
0
 10
382.546097
 20
20.727528
 42
0.044530
  0
VERTEX
  8
0
 10
383.358864
 20
21.143635
 42
0.174785
  0
VERTEX
  8
0
 10
383.699908
 20
21.580758
 42
0.259534
  0
VERTEX
  8
0
 10
383.621369
 20
21.986104
 42
0.153594
  0
VERTEX
  8
0
 10
383.194236
 20
22.257924
 42
0.074519
  0
VERTEX
  8
0
 10
382.377157
 20
22.350793
 42
0.027542
  0
VERTEX
  8
0
 10
381.220037
 20
22.245602
 42
-0.045708
  0
VERTEX
  8
0
 10
379.942897
 20
22.176087
 42
-0.059493
  0
VERTEX
  8
0
 10
378.786842
 20
22.357696
 42
-0.066506
  0
VERTEX
  8
0
 10
377.812528
 20
22.778250
 42
-0.084645
  0
VERTEX
  8
0
 10
377.070673
 20
23.414844
 42
-0.077940
  0
VERTEX
  8
0
 10
376.563636
 20
24.266185
 42
-0.395186
  0
VERTEX
  8
0
 10
376.746232
 20
24.735419
 42
-0.104848
  0
VERTEX
  8
0
 10
377.674303
 20
24.960627
 42
-0.007282
  0
VERTEX
  8
0
 10
380.377555
 20
25.000000
 42
0.013920
  0
VERTEX
  8
0
 10
382.854285
 20
25.068965
 42
0.081200
  0
VERTEX
  8
0
 10
384.123657
 20
25.349786
 42
0.174296
  0
VERTEX
  8
0
 10
384.762253
 20
25.915428
 42
0.125853
  0
VERTEX
  8
0
 10
385.000000
 20
26.845012
 42
0.131807
  0
VERTEX
  8
0
 10
384.546637
 20
28.534928
 42
0.069552
  0
VERTEX
  8
0
 10
383.200149
 20
30.258837
 42
0.069082
  0
VERTEX
  8
0
 10
381.418172
 20
31.560507
 42
0.123861
  0
VERTEX
  8
0
 10
379.671259
 20
32.000000
 42
0.088672
  0
VERTEX
  8
0
 10
378.889308
 20
31.860226
 42
0.036280
  0
VERTEX
  8
0
 10
377.903432
 20
31.412500
 42
0.034452
  0
VERTEX
  8
0
 10
376.888653
 20
30.765349
 42
0.037223
  0
SEQEND
  0
POLYLINE
  8
0
 66
1
 70
1
  0
VERTEX
  8
0
 10
382.755005
 20
28.250000
 42
-0.237479
  0
VERTEX
  8
0
 10
382.674024
 20
27.707487
 42
-0.149504
  0
VERTEX
  8
0
 10
382.156885
 20
27.306556
 42
-0.069968
  0
VERTEX
  8
0
 10
381.107343
 20
27.068583
 42
-0.020818
  0
VERTEX
  8
0
 10
379.460889
 20
27.000000
 42
-0.009625
  0
VERTEX
  8
0
 10
377.342362
 20
27.040787
 42
-0.133407
  0
VERTEX
  8
0
 10
376.618232
 20
27.267764
 42
-0.382732
  0
VERTEX
  8
0
 10
376.495344
 20
27.710525
 42
-0.058165
  0
VERTEX
  8
0
 10
377.040050
 20
28.548257
 42
-0.134530
  0
VERTEX
  8
0
 10
378.394795
 20
29.496359
 42
-0.099149
  0
VERTEX
  8
0
 10
380.215333
 20
29.763152
 42
-0.109073
  0
VERTEX
  8
0
 10
381.861325
 20
29.308623
 42
-0.193860
  0
SEQEND
  0
POLYLINE
  8
0
 66
1
 70
1
  0
VERTEX
  8
0
 10
397.000000
 20
26.000000
 42
0.015416
  0
VERTEX
  8
0
 10
397.071434
 20
23.683687
 42
0.025878
  0
VERTEX
  8
0
 10
397.291667
 20
21.750000
 42
0.024068
  0
VERTEX
  8
0
 10
397.604992
 20
20.303225
 42
0.339565
  0
VERTEX
  8
0
 10
398.000000
 20
20.000000
 42
0.339565
  0
VERTEX
  8
0
 10
398.395008
 20
20.303225
 42
0.024068
  0
VERTEX
  8
0
 10
398.708333
 20
21.750000
 42
0.025878
  0
VERTEX
  8
0
 10
398.928566
 20
23.683687
 42
0.015416
  0
VERTEX
  8
0
 10
399.000000
 20
26.000000
 42
0.015416
  0
VERTEX
  8
0
 10
398.928566
 20
28.316313
 42
0.025878
  0
VERTEX
  8
0
 10
398.708333
 20
30.250000
 42
0.024068
  0
VERTEX
  8
0
 10
398.395008
 20
31.696775
 42
0.339565
  0
VERTEX
  8
0
 10
398.000000
 20
32.000000
 42
0.339565
  0
VERTEX
  8
0
 10
397.604992
 20
31.696775
 42
0.024068
  0
VERTEX
  8
0
 10
397.291667
 20
30.250000
 42
0.025878
  0
VERTEX
  8
0
 10
397.071434
 20
28.316313
 42
0.015416
  0
SEQEND
  0
POLYLINE
  8
0
 66
1
 70
1
  0
VERTEX
  8
0
 10
403.000000
 20
26.000000
 42
0.015593
  0
VERTEX
  8
0
 10
403.143133
 20
21.411535
 42
0.252071
  0
VERTEX
  8
0
 10
403.932572
 20
20.141725
 42
0.530566
  0
VERTEX
  8
0
 10
404.765028
 20
20.548869
 42
0.019031
  0
VERTEX
  8
0
 10
405.195209
 20
24.741006
 42
-0.017096
  0
VERTEX
  8
0
 10
405.432873
 20
27.148760
 42
-0.068181
  0
VERTEX
  8
0
 10
405.825783
 20
28.575494
 42
-0.120706
  0
VERTEX
  8
0
 10
406.450413
 20
29.405510
 42
-0.125039
  0
VERTEX
  8
0
 10
407.380173
 20
29.839399
 42
-0.143808
  0
VERTEX
  8
0
 10
408.957700
 20
29.684597
 42
-0.165762
  0
VERTEX
  8
0
 10
410.097543
 20
28.700877
 42
-0.099266
  0
VERTEX
  8
0
 10
410.772907
 20
26.744262
 42
-0.032627
  0
VERTEX
  8
0
 10
410.984687
 20
23.690983
 42
0.023221
  0
VERTEX
  8
0
 10
411.056462
 20
22.269585
 42
0.046911
  0
VERTEX
  8
0
 10
411.268717
 20
21.169721
 42
0.080954
  0
VERTEX
  8
0
 10
411.574192
 20
20.530743
 42
0.398505
  0
VERTEX
  8
0
 10
411.930095
 20
20.456796
 42
0.163403
  0
VERTEX
  8
0
 10
412.267490
 20
20.862874
 42
0.045989
  0
VERTEX
  8
0
 10
412.496174
 20
21.665937
 42
0.041143
  0
VERTEX
  8
0
 10
412.600957
 20
22.676995
 42
0.033413
  0
VERTEX
  8
0
 10
412.551084
 20
23.765813
 42
-0.060045
  0
VERTEX
  8
0
 10
412.569313
 20
26.238369
 42
-0.095869
  0
VERTEX
  8
0
 10
413.228830
 20
28.238753
 42
-0.122331
  0
VERTEX
  8
0
 10
414.437537
 20
29.528227
 42
-0.144561
  0
VERTEX
  8
0
 10
416.035184
 20
30.000000
 42
-0.115136
  0
VERTEX
  8
0
 10
417.056146
 20
29.761743
 42
-0.186583
  0
VERTEX
  8
0
 10
417.651759
 20
29.113808
 42
-0.082111
  0
VERTEX
  8
0
 10
417.934830
 20
27.789440
 42
-0.011680
  0
VERTEX
  8
0
 10
418.000000
 20
25.000000
 42
0.018886
  0
VERTEX
  8
0
 10
418.073929
 20
23.043489
 42
0.032984
  0
VERTEX
  8
0
 10
418.302613
 20
21.437920
 42
0.037056
  0
VERTEX
  8
0
 10
418.634409
 20
20.290559
 42
0.313509
  0
VERTEX
  8
0
 10
419.052260
 20
20.000000
 42
0.321760
  0
VERTEX
  8
0
 10
419.472409
 20
20.301599
 42
0.045257
  0
VERTEX
  8
0
 10
419.735814
 20
21.401034
 42
0.034756
  0
VERTEX
  8
0
 10
419.858367
 20
23.027371
 42
0.016098
  0
VERTEX
  8
0
 10
419.802260
 20
25.147006
 42
0.043009
  0
VERTEX
  8
0
 10
419.255800
 20
28.899162
 42
0.126938
  0
VERTEX
  8
0
 10
418.054748
 20
31.188743
 42
0.211849
  0
VERTEX
  8
0
 10
416.317339
 20
31.959694
 42
0.140502
  0
VERTEX
  8
0
 10
414.188166
 20
31.349584
 42
-0.053229
  0
VERTEX
  8
0
 10
413.253499
 20
30.895907
 42
-0.079538
  0
VERTEX
  8
0
 10
412.362989
 20
30.727606
 42
-0.080076
  0
VERTEX
  8
0
 10
411.468845
 20
30.846106
 42
-0.054713
  0
VERTEX
  8
0
 10
410.523532
 20
31.246769
 42
0.055095
  0
VERTEX
  8
0
 10
409.576006
 20
31.647517
 42
0.080509
  0
VERTEX
  8
0
 10
408.679315
 20
31.764179
 42
0.079531
  0
VERTEX
  8
0
 10
407.783646
 20
31.591902
 42
0.052422
  0
VERTEX
  8
0
 10
406.838822
 20
31.131416
 42
-0.029687
  0
VERTEX
  8
0
 10
406.065165
 20
30.709879
 42
-0.091152
  0
VERTEX
  8
0
 10
405.490521
 20
30.558407
 42
-0.199982
  0
VERTEX
  8
0
 10
405.145934
 20
30.672151
 42
-0.217646
  0
VERTEX
  8
0
 10
405.000000
 20
30.991526
 42
0.098179
  0
VERTEX
  8
0
 10
404.923689
 20
31.376411
 42
0.097739
  0
VERTEX
  8
0
 10
404.706250
 20
31.703761
 42
0.098144
  0
VERTEX
  8
0
 10
404.381626
 20
31.922980
 42
0.099904
  0
VERTEX
  8
0
 10
404.000000
 20
32.000000
 42
0.339565
  0
VERTEX
  8
0
 10
403.604992
 20
31.696775
 42
0.024068
  0
VERTEX
  8
0
 10
403.291667
 20
30.250000
 42
0.025878
  0
VERTEX
  8
0
 10
403.071434
 20
28.316313
 42
0.015416
  0
SEQEND
  0
POLYLINE
  8
0
 66
1
 70
1
  0
VERTEX
  8
0
 10
424.550282
 20
29.768326
 42
0.123309
  0
VERTEX
  8
0
 10
423.205980
 20
26.257002
 42
0.151896
  0
VERTEX
  8
0
 10
423.835195
 20
22.823259
 42
0.173630
  0
VERTEX
  8
0
 10
426.191292
 20
20.653529
 42
0.163000
  0
VERTEX
  8
0
 10
429.459705
 20
20.400531
 42
-0.029013
  0
VERTEX
  8
0
 10
430.647720
 20
20.626418
 42
-0.105448
  0
VERTEX
  8
0
 10
431.409403
 20
20.565174
 42
-0.187921
  0
VERTEX
  8
0
 10
431.837487
 20
20.231656
 42
-0.135170
  0
VERTEX
  8
0
 10
432.000000
 20
19.641497
 42
-0.148628
  0
VERTEX
  8
0
 10
431.541934
 20
18.134559
 42
-0.108155
  0
VERTEX
  8
0
 10
430.270756
 20
16.913890
 42
-0.095552
  0
VERTEX
  8
0
 10
428.451985
 20
16.231097
 42
-0.089612
  0
VERTEX
  8
0
 10
426.466111
 20
16.251229
 42
0.029043
  0
VERTEX
  8
0
 10
425.405471
 20
16.390772
 42
0.089040
  0
VERTEX
  8
0
 10
424.687317
 20
16.315184
 42
0.190383
  0
VERTEX
  8
0
 10
424.333972
 20
16.041662
 42
0.216421
  0
VERTEX
  8
0
 10
424.287484
 20
15.618905
 42
0.240698
  0
VERTEX
  8
0
 10
425.356933
 20
14.557456
 42
0.076210
  0
VERTEX
  8
0
 10
427.645715
 20
14.194879
 42
0.069474
  0
VERTEX
  8
0
 10
430.200094
 20
14.538559
 42
0.116294
  0
VERTEX
  8
0
 10
432.088434
 20
15.580032
 42
0.086569
  0
VERTEX
  8
0
 10
433.047075
 20
16.808807
 42
0.069739
  0
VERTEX
  8
0
 10
433.623226
 20
18.384408
 42
0.042160
  0
VERTEX
  8
0
 10
433.918893
 20
20.699167
 42
0.010694
  0
VERTEX
  8
0
 10
434.000000
 20
24.491054
 42
0.000000
  0
VERTEX
  8
0
 10
434.000000
 20
31.672133
 42
0.000000
  0
VERTEX
  8
0
 10
430.050282
 20
31.826898
 42
0.027732
  0
VERTEX
  8
0
 10
428.027629
 20
31.793956
 42
0.071725
  0
VERTEX
  8
0
 10
426.605361
 20
31.483459
 42
0.088976
  0
VERTEX
  8
0
 10
425.513810
 20
30.835619
 42
0.061746
  0
SEQEND
  0
POLYLINE
  8
0
 66
1
 70
1
  0
VERTEX
  8
0
 10
431.500000
 20
26.013695
 42
-0.081213
  0
VERTEX
  8
0
 10
431.114139
 20
23.653748
 42
-0.180494
  0
VERTEX
  8
0
 10
429.983978
 20
22.259839
 42
-0.205097
  0
VERTEX
  8
0
 10
428.335228
 20
22.047996
 42
-0.104358
  0
VERTEX
  8
0
 10
426.451961
 20
23.039869
 42
-0.162688
  0
VERTEX
  8
0
 10
425.156161
 20
25.127411
 42
-0.165428
  0
VERTEX
  8
0
 10
425.387597
 20
27.558477
 42
-0.164478
  0
VERTEX
  8
0
 10
427.056236
 20
29.353827
 42
-0.160938
  0
VERTEX
  8
0
 10
429.488321
 20
29.788321
 42
-0.089808
  0
VERTEX
  8
0
 10
430.471259
 20
29.460959
 42
-0.146156
  0
VERTEX
  8
0
 10
431.085069
 20
28.840380
 42
-0.096863
  0
VERTEX
  8
0
 10
431.408496
 20
27.781846
 42
-0.025858
  0
SEQEND
  0
POLYLINE
  8
0
 66
1
 70
1
  0
VERTEX
  8
0
 10
437.596556
 20
22.156231
 42
0.105525
  0
VERTEX
  8
0
 10
437.439393
 20
21.716563
 42
0.099247
  0
VERTEX
  8
0
 10
437.470283
 20
21.240657
 42
0.096292
  0
VERTEX
  8
0
 10
437.684746
 20
20.801911
 42
0.092910
  0
VERTEX
  8
0
 10
438.050219
 20
20.468963
 42
0.116221
  0
VERTEX
  8
0
 10
439.032006
 20
20.141241
 42
0.258096
  0
VERTEX
  8
0
 10
439.731074
 20
20.448742
 42
0.251496
  0
VERTEX
  8
0
 10
439.853466
 20
21.214666
 42
0.113251
  0
VERTEX
  8
0
 10
439.296201
 20
22.103799
 42
0.053431
  0
VERTEX
  8
0
 10
438.785686
 20
22.515485
 42
0.136091
  0
VERTEX
  8
0
 10
438.335356
 20
22.655459
 42
0.169261
  0
VERTEX
  8
0
 10
437.940704
 20
22.531428
 42
0.094625
  0
SEQEND
  0
POLYLINE
  8
0
 66
1
 70
1
  0
VERTEX
  8
0
 10
193.000000
 20
126.500000
 42
0.000000
  0
VERTEX
  8
0
 10
193.000000
 20
88.000000
 42
0.000000
  0
VERTEX
  8
0
 10
259.500000
 20
88.000000
 42
0.000000
  0
VERTEX
  8
0
 10
326.000000
 20
88.000000
 42
0.000000
  0
VERTEX
  8
0
 10
326.000000
 20
126.500000
 42
0.000000
  0
VERTEX
  8
0
 10
326.000000
 20
165.000000
 42
0.000000
  0
VERTEX
  8
0
 10
259.500000
 20
165.000000
 42
0.000000
  0
VERTEX
  8
0
 10
193.000000
 20
165.000000
 42
0.000000
  0
SEQEND
  0
POLYLINE
  8
0
 66
1
 70
1
  0
VERTEX
  8
0
 10
313.500000
 20
144.500000
 42
0.000000
  0
VERTEX
  8
0
 10
313.500000
 20
137.500000
 42
0.000000
  0
VERTEX
  8
0
 10
259.500000
 20
137.500000
 42
0.000000
  0
VERTEX
  8
0
 10
205.500000
 20
137.500000
 42
0.000000
  0
VERTEX
  8
0
 10
205.195978
 20
143.388028
 42
-0.009262
  0
VERTEX
  8
0
 10
205.118087
 20
145.742906
 42
-0.011278
  0
VERTEX
  8
0
 10
205.135768
 20
147.949084
 42
-0.009904
  0
VERTEX
  8
0
 10
205.228789
 20
149.794084
 42
-0.074192
  0
VERTEX
  8
0
 10
205.417932
 20
150.646729
 42
-0.300939
  0
VERTEX
  8
0
 10
206.544651
 20
151.450683
 42
-0.003661
  0
VERTEX
  8
0
 10
215.934057
 20
151.711730
 42
-0.005488
  0
VERTEX
  8
0
 10
230.540281
 20
151.850461
 42
-0.000833
  0
VERTEX
  8
0
 10
259.721954
 20
151.758701
 42
0.000000
  0
VERTEX
  8
0
 10
313.500000
 20
151.500000
 42
0.000000
  0
SEQEND
  0
POLYLINE
  8
0
 66
1
 70
1
  0
VERTEX
  8
0
 10
313.500000
 20
127.500000
 42
0.000000
  0
VERTEX
  8
0
 10
313.500000
 20
120.500000
 42
0.000000
  0
VERTEX
  8
0
 10
259.500000
 20
120.500000
 42
0.000000
  0
VERTEX
  8
0
 10
205.500000
 20
120.500000
 42
0.000000
  0
VERTEX
  8
0
 10
205.195978
 20
126.388028
 42
-0.009262
  0
VERTEX
  8
0
 10
205.118087
 20
128.742906
 42
-0.011278
  0
VERTEX
  8
0
 10
205.135768
 20
130.949084
 42
-0.009904
  0
VERTEX
  8
0
 10
205.228789
 20
132.794084
 42
-0.074192
  0
VERTEX
  8
0
 10
205.417932
 20
133.646729
 42
-0.300939
  0
VERTEX
  8
0
 10
206.544651
 20
134.450683
 42
-0.003661
  0
VERTEX
  8
0
 10
215.934057
 20
134.711730
 42
-0.005488
  0
VERTEX
  8
0
 10
230.540281
 20
134.850461
 42
-0.000833
  0
VERTEX
  8
0
 10
259.721954
 20
134.758701
 42
0.000000
  0
VERTEX
  8
0
 10
313.500000
 20
134.500000
 42
0.000000
  0
SEQEND
  0
POLYLINE
  8
0
 66
1
 70
1
  0
VERTEX
  8
0
 10
313.500000
 20
107.000000
 42
0.000000
  0
VERTEX
  8
0
 10
313.500000
 20
96.500000
 42
0.000000
  0
VERTEX
  8
0
 10
293.000000
 20
96.500000
 42
0.000000
  0
VERTEX
  8
0
 10
272.500000
 20
96.500000
 42
0.000000
  0
VERTEX
  8
0
 10
272.210159
 20
105.924983
 42
-0.005477
  0
VERTEX
  8
0
 10
272.136766
 20
109.633228
 42
-0.007468
  0
VERTEX
  8
0
 10
272.157160
 20
112.976706
 42
-0.005156
  0
VERTEX
  8
0
 10
272.244671
 20
115.767465
 42
-0.081366
  0
VERTEX
  8
0
 10
272.436748
 20
116.695763
 42
-0.277380
  0
VERTEX
  8
0
 10
273.352373
 20
117.411141
 42
-0.017606
  0
VERTEX
  8
0
 10
276.891224
 20
117.719337
 42
-0.013721
  0
VERTEX
  8
0
 10
282.637190
 20
117.858541
 42
-0.002534
  0
VERTEX
  8
0
 10
293.226589
 20
117.770780
 42
0.000000
  0
VERTEX
  8
0
 10
313.500000
 20
117.500000
 42
0.000000
  0
SEQEND
  0
POLYLINE
  8
0
 66
1
 70
1
  0
VERTEX
  8
0
 10
203.000000
 20
83.000000
 42
0.075780
  0
VERTEX
  8
0
 10
203.142566
 20
82.064742
 42
0.149477
  0
VERTEX
  8
0
 10
203.562500
 20
81.450000
 42
0.124434
  0
VERTEX
  8
0
 10
204.317234
 20
81.106468
 42
0.044917
  0
VERTEX
  8
0
 10
205.500000
 20
81.000000
 42
0.044917
  0
VERTEX
  8
0
 10
206.682766
 20
81.106468
 42
0.124434
  0
VERTEX
  8
0
 10
207.437500
 20
81.450000
 42
0.149477
  0
VERTEX
  8
0
 10
207.857434
 20
82.064742
 42
0.075780
  0
VERTEX
  8
0
 10
208.000000
 20
83.000000
 42
0.075780
  0
VERTEX
  8
0
 10
207.857434
 20
83.935258
 42
0.149477
  0
VERTEX
  8
0
 10
207.437500
 20
84.550000
 42
0.124434
  0
VERTEX
  8
0
 10
206.682766
 20
84.893532
 42
0.044917
  0
VERTEX
  8
0
 10
205.500000
 20
85.000000
 42
0.044917
  0
VERTEX
  8
0
 10
204.317234
 20
84.893532
 42
0.124434
  0
VERTEX
  8
0
 10
203.562500
 20
84.550000
 42
0.149477
  0
VERTEX
  8
0
 10
203.142566
 20
83.935258
 42
0.075780
  0
SEQEND
  0
POLYLINE
  8
0
 66
1
 70
1
  0
VERTEX
  8
0
 10
310.000000
 20
83.000000
 42
0.075780
  0
VERTEX
  8
0
 10
310.142566
 20
82.064742
 42
0.149477
  0
VERTEX
  8
0
 10
310.562500
 20
81.450000
 42
0.124434
  0
VERTEX
  8
0
 10
311.317234
 20
81.106468
 42
0.044917
  0
VERTEX
  8
0
 10
312.500000
 20
81.000000
 42
0.044917
  0
VERTEX
  8
0
 10
313.682766
 20
81.106468
 42
0.124434
  0
VERTEX
  8
0
 10
314.437500
 20
81.450000
 42
0.149477
  0
VERTEX
  8
0
 10
314.857434
 20
82.064742
 42
0.075780
  0
VERTEX
  8
0
 10
315.000000
 20
83.000000
 42
0.075780
  0
VERTEX
  8
0
 10
314.857434
 20
83.935258
 42
0.149477
  0
VERTEX
  8
0
 10
314.437500
 20
84.550000
 42
0.124434
  0
VERTEX
  8
0
 10
313.682766
 20
84.893532
 42
0.044917
  0
VERTEX
  8
0
 10
312.500000
 20
85.000000
 42
0.044917
  0
VERTEX
  8
0
 10
311.317234
 20
84.893532
 42
0.124434
  0
VERTEX
  8
0
 10
310.562500
 20
84.550000
 42
0.149477
  0
VERTEX
  8
0
 10
310.142566
 20
83.935258
 42
0.075780
  0
SEQEND
  0
POLYLINE
  8
0
 66
1
 70
1
  0
VERTEX
  8
0
 10
208.000000
 20
144.500000
 42
0.000000
  0
VERTEX
  8
0
 10
208.000000
 20
140.000000
 42
0.000000
  0
VERTEX
  8
0
 10
259.500000
 20
140.000000
 42
0.000000
  0
VERTEX
  8
0
 10
311.000000
 20
140.000000
 42
0.000000
  0
VERTEX
  8
0
 10
311.000000
 20
144.500000
 42
0.000000
  0
VERTEX
  8
0
 10
311.000000
 20
149.000000
 42
0.000000
  0
VERTEX
  8
0
 10
259.500000
 20
149.000000
 42
0.000000
  0
VERTEX
  8
0
 10
208.000000
 20
149.000000
 42
0.000000
  0
SEQEND
  0
POLYLINE
  8
0
 66
1
 70
1
  0
VERTEX
  8
0
 10
208.000000
 20
127.500000
 42
0.000000
  0
VERTEX
  8
0
 10
208.000000
 20
123.000000
 42
0.000000
  0
VERTEX
  8
0
 10
259.500000
 20
123.000000
 42
0.000000
  0
VERTEX
  8
0
 10
311.000000
 20
123.000000
 42
0.000000
  0
VERTEX
  8
0
 10
311.000000
 20
127.500000
 42
0.000000
  0
VERTEX
  8
0
 10
311.000000
 20
132.000000
 42
0.000000
  0
VERTEX
  8
0
 10
259.500000
 20
132.000000
 42
0.000000
  0
VERTEX
  8
0
 10
208.000000
 20
132.000000
 42
0.000000
  0
SEQEND
  0
POLYLINE
  8
0
 66
1
 70
1
  0
VERTEX
  8
0
 10
275.000000
 20
107.000000
 42
0.000000
  0
VERTEX
  8
0
 10
275.000000
 20
99.000000
 42
0.000000
  0
VERTEX
  8
0
 10
293.000000
 20
99.000000
 42
0.000000
  0
VERTEX
  8
0
 10
311.000000
 20
99.000000
 42
0.000000
  0
VERTEX
  8
0
 10
311.000000
 20
107.000000
 42
0.000000
  0
VERTEX
  8
0
 10
311.000000
 20
115.000000
 42
0.000000
  0
VERTEX
  8
0
 10
293.000000
 20
115.000000
 42
0.000000
  0
VERTEX
  8
0
 10
275.000000
 20
115.000000
 42
0.000000
  0
SEQEND
  0
ENDSEC
  0
EOF
